<svg width="161" height="211" viewBox="0 0 161 211" fill="none" xmlns="http://www.w3.org/2000/svg">
<g clip-path="url(#clip0_110_58)">
<path d="M102.743 90.1643L65.408 105.178L106.302 207.694L119.731 187.058L143.64 192.683L102.743 90.1643Z" fill="url(#paint0_linear_110_58)"/>
<path style="mix-blend-mode:screen" d="M102.497 90.7433L142.909 192.051L119.834 186.622L119.532 186.549L119.358 186.814L106.397 206.73L65.9848 105.423L102.497 90.7433ZM102.743 90.1614L65.408 105.175L106.302 207.694L119.742 187.058L143.651 192.68L102.754 90.1614H102.743Z" fill="url(#paint1_linear_110_58)"/>
<path d="M63.6748 93.4729L101.01 108.484L60.116 211L46.6872 190.367L22.778 195.989L63.6748 93.4729Z" fill="url(#paint2_linear_110_58)"/>
<path style="mix-blend-mode:screen" d="M63.9212 94.0491L100.433 108.731L60.0208 210.036L47.0568 190.119L46.8888 189.858L46.5836 189.928L23.5088 195.359L63.9212 94.0491ZM63.6748 93.47L22.778 195.986L46.6872 190.364L60.1272 211L101.021 108.484L63.686 93.47H63.6748Z" fill="url(#paint3_linear_110_58)"/>
<path d="M146.983 122.885C146.955 127.383 143.416 132.046 139.121 133.286C134.825 134.525 130.035 138.956 128.481 143.161C126.927 147.366 122.01 150.543 117.561 150.22C113.111 149.896 107.094 152.432 104.202 155.842C101.309 159.251 95.6058 160.556 91.529 158.723C87.4522 156.89 80.9366 157.205 77.0558 159.423C73.175 161.641 67.3706 160.904 64.1758 157.781C60.981 154.658 54.7398 152.721 50.3354 153.472C45.931 154.223 40.7314 151.538 38.7826 147.501C36.8338 143.465 31.6426 139.504 27.2466 138.7C22.8506 137.896 18.883 133.584 18.4238 129.12C17.9646 124.656 14.4366 119.155 10.5838 116.889C6.73099 114.623 4.46579 109.209 5.54379 104.863C6.62179 100.517 5.19097 94.1279 2.34337 90.6731C-0.50423 87.2184 -0.789827 81.3574 1.71617 77.644C4.22217 73.9306 5.04258 67.437 3.53898 63.212C2.03538 58.987 3.76858 53.3733 7.38898 50.7535C11.0094 48.1336 13.9942 42.3034 14.0194 37.8226C14.0446 33.3418 17.5838 28.6614 21.8818 27.4218C26.1798 26.1821 30.9678 21.7519 32.5218 17.5466C34.0758 13.3413 38.9926 10.1647 43.4418 10.4852C47.891 10.8057 53.911 8.27572 56.8034 4.86311C59.6958 1.4505 65.3966 0.148987 69.4734 1.98179C73.5502 3.81459 80.0658 3.49975 83.9466 1.27903C87.8274 -0.941699 93.6318 -0.199558 96.8266 2.9207C100.021 6.04097 106.263 7.98054 110.667 7.22999C115.071 6.47944 120.271 9.1668 122.223 13.2035C124.174 17.2401 129.363 21.1981 133.756 22.0049C138.149 22.8116 142.122 27.121 142.579 31.5821C143.035 36.0433 146.566 41.5473 150.419 43.813C154.271 46.0787 156.537 51.4928 155.459 55.8415C154.381 60.1902 155.809 66.5769 158.659 70.0316C161.509 73.4864 161.792 79.3474 159.286 83.0636C156.78 86.7798 155.96 93.2677 157.461 97.4927C158.961 101.718 157.231 107.331 153.611 109.951C149.99 112.571 147.008 118.399 146.983 122.885Z" fill="url(#paint4_linear_110_58)"/>
<path d="M6.14041 80.3482C6.14041 39.1214 39.4324 5.698 80.5 5.698C121.568 5.698 154.857 39.1214 154.857 80.3482C154.857 121.575 121.559 155.001 80.5 155.001C39.4408 155.001 6.14041 121.581 6.14041 80.3482Z" fill="url(#paint5_linear_110_58)"/>
<path d="M152.639 80.348C152.639 120.346 120.344 152.769 80.5056 152.769C40.6672 152.769 8.36639 120.338 8.36639 80.348C8.36639 40.3581 40.6588 7.93262 80.5 7.93262C120.341 7.93262 152.639 40.3553 152.639 80.348Z" fill="black"/>
<path d="M12.8884 80.3482C12.8884 42.8629 43.1564 12.4727 80.5 12.4727C117.844 12.4727 148.112 42.8629 148.112 80.3482C148.112 117.833 117.841 148.229 80.5 148.229C43.1592 148.229 12.8884 117.839 12.8884 80.3482Z" fill="url(#paint6_linear_110_58)"/>
<path d="M80.5 146.183C116.715 146.183 146.073 116.709 146.073 80.351C146.073 43.993 116.715 14.519 80.5 14.519C44.2849 14.519 14.9268 43.993 14.9268 80.351C14.9268 116.709 44.2849 146.183 80.5 146.183Z" fill="black"/>
<path style="mix-blend-mode:screen" opacity="0.2" d="M34.8964 136.454L80.5 80.348L33.4124 135.186C33.9192 135.613 34.3924 136.043 34.8964 136.454ZM28.7028 130.739L80.5028 80.3593L27.3616 129.322C27.7984 129.792 28.252 130.258 28.7028 130.739ZM64.8228 151.046L80.5028 80.3593L62.9328 150.607C63.5572 150.753 64.19 150.894 64.8256 151.035L64.8228 151.046ZM48.9944 145.522L80.4972 80.3593L47.2584 144.628C47.838 144.918 48.412 145.224 48.9972 145.511L48.9944 145.522ZM73.0744 152.401L80.4888 80.3593L71.1592 152.142C71.7948 152.226 72.4332 152.325 73.0856 152.384L73.0744 152.401ZM56.742 148.746L80.4888 80.3593L54.9192 148.066C55.5268 148.299 56.1372 148.519 56.7532 148.73L56.742 148.746ZM9.64321 93.9141L80.5 80.3621L9.30158 91.9857C9.40518 92.6182 9.52281 93.2592 9.64321 93.9141ZM8.56798 85.5428L80.5 80.3621L8.43919 83.5779C8.47279 84.2329 8.52318 84.8794 8.56798 85.5288V85.5428ZM11.648 102.063L80.486 80.3621L11.1076 100.18C11.298 100.796 11.4688 101.428 11.662 102.049L11.648 102.063ZM23.2176 124.38L80.486 80.3621L22.0528 122.809C22.4392 123.323 22.8368 123.846 23.2316 124.366L23.2176 124.38ZM18.5192 117.398L80.5 80.348L17.5448 115.7C17.864 116.27 18.186 116.835 18.5192 117.398ZM14.6524 109.915L80.5 80.348L13.86 108.124C14.1204 108.726 14.3864 109.321 14.6524 109.915ZM80.5 152.769C80.8276 152.769 81.1468 152.749 81.4744 152.744L80.5 80.348L79.5256 152.744C79.8392 152.749 80.1724 152.769 80.5 152.769ZM133.641 129.311L80.5 80.348L132.3 130.725C132.759 130.258 133.202 129.792 133.641 129.311ZM138.93 122.795L80.5 80.348L137.768 124.363C138.162 123.846 138.546 123.323 138.919 122.795H138.93ZM147.129 108.124L80.4888 80.348L146.334 109.915C146.611 109.319 146.88 108.726 147.129 108.124ZM143.452 115.7L80.5 80.348L142.481 117.395C142.814 116.835 143.133 116.268 143.452 115.7ZM151.698 91.9717L80.5 80.348L151.34 93.9001C151.474 93.2592 151.595 92.6183 151.698 91.9717ZM149.876 100.166L80.5 80.348L149.335 102.049C149.531 101.428 149.699 100.793 149.876 100.166ZM8.4476 77.1153L80.5 80.3452L8.56798 75.1617C8.52318 75.8138 8.47559 76.4632 8.43919 77.1181L8.4476 77.1153ZM106.075 148.066L80.5 80.3452L104.244 148.732C104.857 148.519 105.47 148.299 106.075 148.069V148.066ZM127.588 135.18L80.5 80.3452L126.104 136.451C126.599 136.041 127.098 135.61 127.588 135.183V135.18ZM89.8464 152.139L80.5 80.3452L87.9144 152.384C88.564 152.325 89.2024 152.226 89.8464 152.142V152.139ZM98.07 150.593L80.5 80.3452L96.18 151.032C96.8072 150.894 97.4428 150.751 98.07 150.596V150.593ZM120.943 140.316L80.5 80.3452L119.319 141.382C119.854 141.03 120.406 140.687 120.943 140.319V140.316ZM113.739 144.614L80.5 80.3452L112.003 145.508C112.599 145.224 113.159 144.918 113.739 144.617V144.614ZM41.692 141.379L80.5 80.3452L40.0568 140.319C40.5944 140.687 41.146 141.03 41.692 141.382V141.379ZM126.101 24.2423L80.5 80.3452L127.585 25.5101C127.092 25.0884 126.599 24.6584 126.101 24.2451V24.2423ZM119.319 19.3174L80.514 80.348L120.957 20.3799C120.406 20.0145 119.854 19.6687 119.319 19.3174ZM132.308 29.9741L80.5084 80.348L133.647 31.388C133.199 30.9045 132.759 30.4407 132.294 29.9741H132.308ZM104.258 11.9665L80.514 80.348L106.089 12.6327C105.47 12.3938 104.857 12.1801 104.244 11.9665H104.258ZM137.78 36.3354L80.514 80.348L138.942 37.9012C138.553 37.3727 138.161 36.8508 137.766 36.3354H137.78ZM112.02 15.1908L80.5168 80.348L113.756 16.0847C113.159 15.7811 112.599 15.4859 112.003 15.2048L112.02 15.1908ZM146.359 50.7815L80.5168 80.348L147.157 52.5721C146.877 51.9705 146.611 51.3774 146.342 50.7815H146.359ZM152.446 75.1645L80.5168 80.348L152.569 77.1181C152.524 76.4632 152.474 75.8138 152.429 75.1645H152.446ZM151.371 66.8044L80.5308 80.348L151.726 68.7271C151.595 68.0834 151.474 67.4425 151.354 66.8044H151.371ZM152.569 83.5779L80.5168 80.348L152.446 85.5288C152.477 84.8794 152.524 84.2329 152.552 83.5779H152.569ZM149.352 58.6468L80.5168 80.348L149.892 60.533C149.699 59.9005 149.528 59.2708 149.335 58.6468H149.352ZM96.1744 9.66708L80.4944 80.348L98.0644 10.1056C97.4428 9.9482 96.8072 9.80763 96.1744 9.66708ZM142.478 43.3153L80.5 80.3621L143.45 45.0019C143.133 44.4397 142.811 43.8606 142.478 43.3153ZM40.0568 20.3912L80.5 80.3621L41.6948 19.3314C41.1488 19.6688 40.5944 20.0117 40.0568 20.3771V20.3912ZM22.0696 37.9181L80.5 80.3649L23.2344 36.3495C22.8368 36.8499 22.4392 37.3727 22.0696 37.904V37.9181ZM27.3616 31.4021L80.5 80.3621L28.7 29.9853C28.252 30.4407 27.7984 30.9045 27.3616 31.388V31.4021ZM17.5616 45.0132L80.514 80.3621L18.5192 43.3153C18.186 43.8606 17.8668 44.4397 17.5476 45.0019L17.5616 45.0132ZM33.4292 25.527L80.514 80.3621L34.8992 24.2451C34.3952 24.6555 33.9192 25.0856 33.4152 25.5129L33.4292 25.527ZM87.9284 8.3262L80.514 80.3621L89.8604 8.57073C89.2024 8.47234 88.564 8.37679 87.9144 8.31214L87.9284 8.3262ZM13.8712 52.5721L80.5112 80.348L14.6552 50.7815C14.3892 51.3774 14.1204 51.9705 13.8712 52.5721ZM11.1216 60.533L80.5 80.348L11.6648 58.6468C11.4688 59.2708 11.3008 59.9005 11.1216 60.533ZM9.30158 68.7271L80.5 80.348L9.64321 66.8044C9.52281 67.4425 9.40518 68.0806 9.30158 68.7271ZM80.5 7.93262C80.1724 7.93262 79.8504 7.95232 79.5256 7.95794L80.5 80.348L81.4744 7.95794C81.1468 7.95232 80.8276 7.93262 80.5 7.93262ZM62.9272 10.1056L80.5 80.348L64.82 9.66708C64.19 9.80763 63.5572 9.9482 62.9272 10.1056ZM71.1508 8.55673L80.5 80.348L73.0856 8.31214C72.4332 8.37679 71.7948 8.4724 71.1592 8.55673H71.1508ZM54.9108 12.6327L80.4916 80.348L56.7448 11.9665C56.1344 12.1801 55.5259 12.4022 54.9192 12.6327H54.9108ZM47.2528 16.0847L80.4916 80.348L48.9972 15.2048C48.412 15.4859 47.838 15.7811 47.2612 16.0847H47.2528Z" fill="url(#paint7_radial_110_58)"/>
<path style="mix-blend-mode:screen" d="M80.6792 71.1672C95.1127 56.7159 112.851 46.032 132.345 40.0488C126.225 32.097 118.37 25.6604 109.384 21.234C100.398 16.8075 90.5206 14.5094 80.5112 14.5161C44.296 14.5161 14.938 43.9899 14.938 80.348C14.931 91.6389 17.8184 102.742 23.3224 112.588C28.8265 122.434 36.7619 130.693 46.3652 136.569C51.0058 111.805 62.9623 89.0162 80.6792 71.1672Z" fill="url(#paint8_radial_110_58)"/>
<path d="M136.911 88.8993L131.98 85.9674L127.052 88.9021L128.306 83.2885L124 79.4907L129.706 78.9538L131.974 73.6719L134.248 78.951L139.954 79.4851L135.654 83.2857L136.911 88.8993Z" fill="url(#paint9_linear_110_58)"/>
<path d="M35.908 88.8993L30.9772 85.9674L26.0492 88.9021L27.3036 83.2885L23 79.4907L28.7036 78.9538L30.9744 73.6719L33.248 78.951L38.9516 79.4851L34.6508 83.2857L35.908 88.8993Z" fill="url(#paint10_linear_110_58)"/>
<path d="M44.148 91.4H48.684C50.2147 91.4 51.3627 91.8107 52.128 92.632C52.8933 93.4533 53.276 94.6573 53.276 96.244V98.176C53.276 99.7627 52.8933 100.967 52.128 101.788C51.3627 102.609 50.2147 103.02 48.684 103.02H47.228V111H44.148V91.4ZM48.684 100.22C49.188 100.22 49.5613 100.08 49.804 99.8C50.0653 99.52 50.196 99.044 50.196 98.372V96.048C50.196 95.376 50.0653 94.9 49.804 94.62C49.5613 94.34 49.188 94.2 48.684 94.2H47.228V100.22H48.684ZM54.9488 91.4H59.5128C61.0994 91.4 62.2568 91.7733 62.9848 92.52C63.7128 93.248 64.0768 94.3773 64.0768 95.908V97.112C64.0768 99.1467 63.4048 100.435 62.0608 100.976V101.032C62.8074 101.256 63.3301 101.713 63.6288 102.404C63.9461 103.095 64.1048 104.019 64.1048 105.176V108.62C64.1048 109.18 64.1235 109.637 64.1608 109.992C64.1981 110.328 64.2914 110.664 64.4408 111H61.3048C61.1928 110.683 61.1181 110.384 61.0808 110.104C61.0434 109.824 61.0248 109.32 61.0248 108.592V105.008C61.0248 104.112 60.8754 103.487 60.5768 103.132C60.2968 102.777 59.8021 102.6 59.0928 102.6H58.0288V111H54.9488V91.4ZM59.1488 99.8C59.7648 99.8 60.2221 99.6413 60.5208 99.324C60.8381 99.0067 60.9968 98.4747 60.9968 97.728V96.216C60.9968 95.5067 60.8661 94.9933 60.6048 94.676C60.3621 94.3587 59.9701 94.2 59.4288 94.2H58.0288V99.8H59.1488ZM70.6938 111.28C69.1818 111.28 68.0244 110.851 67.2218 109.992C66.4191 109.133 66.0178 107.92 66.0178 106.352V96.048C66.0178 94.48 66.4191 93.2667 67.2218 92.408C68.0244 91.5493 69.1818 91.12 70.6938 91.12C72.2058 91.12 73.3631 91.5493 74.1658 92.408C74.9684 93.2667 75.3698 94.48 75.3698 96.048V106.352C75.3698 107.92 74.9684 109.133 74.1658 109.992C73.3631 110.851 72.2058 111.28 70.6938 111.28ZM70.6938 108.48C71.7578 108.48 72.2898 107.836 72.2898 106.548V95.852C72.2898 94.564 71.7578 93.92 70.6938 93.92C69.6298 93.92 69.0978 94.564 69.0978 95.852V106.548C69.0978 107.836 69.6298 108.48 70.6938 108.48ZM77.4527 91.4H82.1567C83.6874 91.4 84.8354 91.8107 85.6007 92.632C86.366 93.4533 86.7487 94.6573 86.7487 96.244V106.156C86.7487 107.743 86.366 108.947 85.6007 109.768C84.8354 110.589 83.6874 111 82.1567 111H77.4527V91.4ZM82.1007 108.2C82.6047 108.2 82.9874 108.051 83.2487 107.752C83.5287 107.453 83.6687 106.968 83.6687 106.296V96.104C83.6687 95.432 83.5287 94.9467 83.2487 94.648C82.9874 94.3493 82.6047 94.2 82.1007 94.2H80.5327V108.2H82.1007ZM93.3077 111.28C91.8144 111.28 90.6757 110.86 89.8917 110.02C89.1077 109.161 88.7157 107.939 88.7157 106.352V91.4H91.7957V106.576C91.7957 107.248 91.9264 107.733 92.1877 108.032C92.4677 108.331 92.8597 108.48 93.3637 108.48C93.8677 108.48 94.2504 108.331 94.5117 108.032C94.7917 107.733 94.9317 107.248 94.9317 106.576V91.4H97.8997V106.352C97.8997 107.939 97.5077 109.161 96.7237 110.02C95.9397 110.86 94.801 111.28 93.3077 111.28ZM104.433 111.28C102.959 111.28 101.829 110.86 101.045 110.02C100.28 109.18 99.8973 107.995 99.8973 106.464V95.936C99.8973 94.4053 100.28 93.22 101.045 92.38C101.829 91.54 102.959 91.12 104.433 91.12C105.908 91.12 107.028 91.54 107.793 92.38C108.577 93.22 108.969 94.4053 108.969 95.936V98.008H106.057V95.74C106.057 94.5267 105.544 93.92 104.517 93.92C103.491 93.92 102.977 94.5267 102.977 95.74V106.688C102.977 107.883 103.491 108.48 104.517 108.48C105.544 108.48 106.057 107.883 106.057 106.688V103.692H108.969V106.464C108.969 107.995 108.577 109.18 107.793 110.02C107.028 110.86 105.908 111.28 104.433 111.28ZM113.22 94.2H110V91.4H119.52V94.2H116.3V111H113.22V94.2Z" fill="url(#paint11_linear_110_58)"/>
<path d="M45.968 50.4H53.936C56.656 50.4 58.64 51.04 59.888 52.32C61.136 53.568 61.76 55.504 61.76 58.128V59.472C61.76 61.2 61.472 62.608 60.896 63.696C60.352 64.784 59.504 65.568 58.352 66.048V66.144C60.976 67.04 62.288 69.376 62.288 73.152V76.032C62.288 78.624 61.6 80.608 60.224 81.984C58.88 83.328 56.896 84 54.272 84H45.968V50.4ZM53.312 64.08C54.368 64.08 55.152 63.808 55.664 63.264C56.208 62.72 56.48 61.808 56.48 60.528V58.656C56.48 57.44 56.256 56.56 55.808 56.016C55.392 55.472 54.72 55.2 53.792 55.2H51.248V64.08H53.312ZM54.272 79.2C55.2 79.2 55.888 78.96 56.336 78.48C56.784 77.968 57.008 77.104 57.008 75.888V72.96C57.008 71.424 56.736 70.368 56.192 69.792C55.68 69.184 54.816 68.88 53.6 68.88H51.248V79.2H54.272ZM65.3743 50.4H79.7743V55.2H70.6543V64.08H77.9023V68.88H70.6543V79.2H79.7743V84H65.3743V50.4ZM89.7695 84.48C87.2095 84.48 85.2735 83.76 83.9615 82.32C82.6495 80.848 81.9935 78.752 81.9935 76.032V74.112H86.9855V76.416C86.9855 78.592 87.8975 79.68 89.7215 79.68C90.6175 79.68 91.2895 79.424 91.7375 78.912C92.2175 78.368 92.4575 77.504 92.4575 76.32C92.4575 74.912 92.1375 73.68 91.4975 72.624C90.8575 71.536 89.6735 70.24 87.9455 68.736C85.7695 66.816 84.2495 65.088 83.3855 63.552C82.5215 61.984 82.0895 60.224 82.0895 58.272C82.0895 55.616 82.7615 53.568 84.1055 52.128C85.4495 50.656 87.4015 49.92 89.9615 49.92C92.4895 49.92 94.3935 50.656 95.6735 52.128C96.9855 53.568 97.6415 55.648 97.6415 58.368V59.76H92.6495V58.032C92.6495 56.88 92.4255 56.048 91.9775 55.536C91.5295 54.992 90.8735 54.72 90.0095 54.72C88.2495 54.72 87.3695 55.792 87.3695 57.936C87.3695 59.152 87.6895 60.288 88.3295 61.344C89.0015 62.4 90.2015 63.68 91.9295 65.184C94.1375 67.104 95.6575 68.848 96.4895 70.416C97.3215 71.984 97.7375 73.824 97.7375 75.936C97.7375 78.688 97.0495 80.8 95.6735 82.272C94.3295 83.744 92.3615 84.48 89.7695 84.48ZM104.893 55.2H99.3729V50.4H115.693V55.2H110.173V84H104.893V55.2Z" fill="url(#paint12_linear_110_58)"/>
</g>
<defs>
<linearGradient id="paint0_linear_110_58" x1="121.668" y1="192.444" x2="91.6814" y2="116.925" gradientUnits="userSpaceOnUse">
<stop stop-color="#EEBE47"/>
<stop offset="0.12" stop-color="#F8DB77"/>
<stop offset="0.21" stop-color="#FFEE96"/>
<stop offset="0.45" stop-color="#A2621E"/>
<stop offset="0.67" stop-color="#EEA54C"/>
<stop offset="1" stop-color="#EEBE47"/>
</linearGradient>
<linearGradient id="paint1_linear_110_58" x1="65.408" y1="148.929" x2="143.64" y2="148.929" gradientUnits="userSpaceOnUse">
<stop stop-color="#EEBE47"/>
<stop offset="0.12" stop-color="#F8DB77"/>
<stop offset="0.21" stop-color="#FFEE96"/>
<stop offset="0.45" stop-color="#A2621E"/>
<stop offset="0.67" stop-color="#EEA54C"/>
<stop offset="1" stop-color="#EEBE47"/>
</linearGradient>
<linearGradient id="paint2_linear_110_58" x1="44.7524" y1="195.753" x2="76.7325" y2="115.207" gradientUnits="userSpaceOnUse">
<stop stop-color="#EEBE47"/>
<stop offset="0.12" stop-color="#F8DB77"/>
<stop offset="0.21" stop-color="#FFEE96"/>
<stop offset="0.45" stop-color="#A2621E"/>
<stop offset="0.67" stop-color="#EEA54C"/>
<stop offset="1" stop-color="#EEBE47"/>
</linearGradient>
<linearGradient id="paint3_linear_110_58" x1="22.778" y1="152.235" x2="101.01" y2="152.235" gradientUnits="userSpaceOnUse">
<stop stop-color="#EEBE47"/>
<stop offset="0.12" stop-color="#F8DB77"/>
<stop offset="0.21" stop-color="#FFEE96"/>
<stop offset="0.45" stop-color="#A2621E"/>
<stop offset="0.67" stop-color="#EEA54C"/>
<stop offset="1" stop-color="#EEBE47"/>
</linearGradient>
<linearGradient id="paint4_linear_110_58" x1="16.9118" y1="19.8854" x2="135.47" y2="131.737" gradientUnits="userSpaceOnUse">
<stop stop-color="#EEBE47"/>
<stop offset="0.12" stop-color="#F8DB77"/>
<stop offset="0.21" stop-color="#FFEE96"/>
<stop offset="0.45" stop-color="#A2621E"/>
<stop offset="0.67" stop-color="#EEA54C"/>
<stop offset="1" stop-color="#EEBE47"/>
</linearGradient>
<linearGradient id="paint5_linear_110_58" x1="25.5192" y1="141.865" x2="134.825" y2="20.5297" gradientUnits="userSpaceOnUse">
<stop stop-color="#EEBE47"/>
<stop offset="0.12" stop-color="#F8DB77"/>
<stop offset="0.21" stop-color="#FFEE96"/>
<stop offset="0.45" stop-color="#A2621E"/>
<stop offset="0.67" stop-color="#EEA54C"/>
<stop offset="1" stop-color="#EEBE47"/>
</linearGradient>
<linearGradient id="paint6_linear_110_58" x1="-4.10201" y1="3.63192" x2="171.087" y2="161.253" gradientUnits="userSpaceOnUse">
<stop stop-color="#EEBE47"/>
<stop offset="0.12" stop-color="#F8DB77"/>
<stop offset="0.21" stop-color="#FFEE96"/>
<stop offset="0.45" stop-color="#A2621E"/>
<stop offset="0.67" stop-color="#EEA54C"/>
<stop offset="1" stop-color="#EEBE47"/>
</linearGradient>
<radialGradient id="paint7_radial_110_58" cx="0" cy="0" r="1" gradientUnits="userSpaceOnUse" gradientTransform="translate(41.6668 17.6392) scale(176.938 177.636)">
<stop stop-color="#FFF1D1"/>
<stop offset="0.05" stop-color="#FFC94C"/>
<stop offset="0.14" stop-color="#A2621E"/>
<stop offset="0.16" stop-color="#965B1C"/>
<stop offset="0.25" stop-color="#6E4314"/>
<stop offset="0.34" stop-color="#4C2E0E"/>
<stop offset="0.44" stop-color="#301D09"/>
<stop offset="0.55" stop-color="#1B1005"/>
<stop offset="0.66" stop-color="#0C0702"/>
<stop offset="0.8" stop-color="#030201"/>
<stop offset="1"/>
</radialGradient>
<radialGradient id="paint8_radial_110_58" cx="0" cy="0" r="1" gradientUnits="userSpaceOnUse" gradientTransform="translate(13.916 15.7642) scale(189.501 190.249)">
<stop stop-color="#FFF1D1"/>
<stop offset="0.05" stop-color="#FFC94C"/>
<stop offset="0.14" stop-color="#A2621E"/>
<stop offset="0.16" stop-color="#965B1C"/>
<stop offset="0.25" stop-color="#6E4314"/>
<stop offset="0.34" stop-color="#4C2E0E"/>
<stop offset="0.44" stop-color="#301D09"/>
<stop offset="0.55" stop-color="#1B1005"/>
<stop offset="0.66" stop-color="#0C0702"/>
<stop offset="0.8" stop-color="#030201"/>
<stop offset="1"/>
</radialGradient>
<linearGradient id="paint9_linear_110_58" x1="41.4112" y1="29.9601" x2="240.302" y2="144.921" gradientUnits="userSpaceOnUse">
<stop stop-color="#EEBE47"/>
<stop offset="0.12" stop-color="#F8DB77"/>
<stop offset="0.21" stop-color="#FFEE96"/>
<stop offset="0.45" stop-color="#A2621E"/>
<stop offset="0.67" stop-color="#EEA54C"/>
<stop offset="1" stop-color="#EEBE47"/>
</linearGradient>
<linearGradient id="paint10_linear_110_58" x1="-25.3868" y1="49.8876" x2="173.417" y2="164.798" gradientUnits="userSpaceOnUse">
<stop stop-color="#EEBE47"/>
<stop offset="0.12" stop-color="#F8DB77"/>
<stop offset="0.21" stop-color="#FFEE96"/>
<stop offset="0.45" stop-color="#A2621E"/>
<stop offset="0.67" stop-color="#EEA54C"/>
<stop offset="1" stop-color="#EEBE47"/>
</linearGradient>
<linearGradient id="paint11_linear_110_58" x1="51.0852" y1="82.6825" x2="89.3165" y2="134.024" gradientUnits="userSpaceOnUse">
<stop stop-color="#EEBE47"/>
<stop offset="0.12" stop-color="#F8DB77"/>
<stop offset="0.21" stop-color="#FFEE96"/>
<stop offset="0.45" stop-color="#A2621E"/>
<stop offset="0.67" stop-color="#EEA54C"/>
<stop offset="1" stop-color="#EEBE47"/>
</linearGradient>
<linearGradient id="paint12_linear_110_58" x1="51.6652" y1="42.91" x2="121.05" y2="98.5611" gradientUnits="userSpaceOnUse">
<stop stop-color="#EEBE47"/>
<stop offset="0.12" stop-color="#F8DB77"/>
<stop offset="0.21" stop-color="#FFEE96"/>
<stop offset="0.45" stop-color="#A2621E"/>
<stop offset="0.67" stop-color="#EEA54C"/>
<stop offset="1" stop-color="#EEBE47"/>
</linearGradient>
<clipPath id="clip0_110_58">
<rect width="161" height="211" fill="white"/>
</clipPath>
</defs>
</svg>
