<svg width="179" height="179" viewBox="0 0 179 179" fill="none" xmlns="http://www.w3.org/2000/svg">
<g clip-path="url(#clip0_110_2)">
<path d="M153.583 151.967L143.319 153.045L140.583 162.983L130.297 162.101L125.737 171.348L115.803 168.535L109.57 176.749L100.349 172.109L92.6707 179L84.4997 172.697L75.6508 178.013L68.825 170.278L59.1286 173.821L53.8875 164.938L43.6987 166.583L40.2361 156.869L29.9154 156.557L28.3549 146.366L18.2845 144.11L18.68 133.796L9.21757 129.682L11.5637 119.632L3.05638 113.8L7.25352 104.378L0 97.0434L5.91097 88.5872L0.180262 80.0046L7.57907 72.8175L3.57833 63.3126L12.2094 57.6528L10.0785 47.5618L19.6243 43.6416L19.4414 33.3328L29.5602 31.2866L31.336 21.1257L41.6566 21.0316L45.3264 11.3897L55.4749 13.2476L60.907 4.47413L70.5227 8.22228L77.5126 0.629174L86.2432 6.13041L94.546 0L102.082 7.05266L111.388 2.60543L117.45 10.9487L127.442 8.34597L131.812 17.6814L142.111 17.0092L144.637 27.0142L154.88 28.2994L155.464 38.6028L165.273 41.8051L163.896 52.0279L172.925 57.0263L169.637 66.8027L177.558 73.4198L172.481 82.4003L179 90.3913L172.317 98.2479L177.2 107.336L169.147 113.784L172.228 123.63L163.102 128.44L164.262 138.69L154.385 141.691L153.583 151.967Z" fill="url(#paint0_linear_110_2)"/>
<path d="M147.08 147.045C178.88 115.264 178.88 63.7383 147.08 31.958C115.279 0.177665 63.7207 0.177574 31.9203 31.9579C0.119985 63.7382 0.119985 115.264 31.9203 147.045C63.7207 178.825 115.279 178.825 147.08 147.045Z" fill="url(#paint1_linear_110_2)"/>
<path d="M145.615 145.581C176.606 114.609 176.606 64.3936 145.615 33.4219C114.623 2.45009 64.3766 2.45009 33.3853 33.4219C2.39393 64.3936 2.39393 114.609 33.3853 145.581C64.3766 176.552 114.623 176.552 145.615 145.581Z" fill="#010101"/>
<path d="M164.888 89.4987C164.888 131.11 131.136 164.841 89.4987 164.841C47.8609 164.841 14.1089 131.11 14.1089 89.4987C14.1089 47.8872 47.8636 14.1538 89.4987 14.1538C131.134 14.1538 164.888 47.8845 164.888 89.4987Z" fill="#101215"/>
<path d="M18.2979 89.4986C18.2979 50.2021 50.1747 18.3401 89.4987 18.3401C128.823 18.3401 160.699 50.2021 160.699 89.4986C160.699 128.795 128.82 160.654 89.4987 160.654C50.1774 160.654 18.2979 128.8 18.2979 89.4986Z" fill="url(#paint2_linear_110_2)"/>
<path style="mix-blend-mode:screen" d="M41.5464 142.008C63.6519 99.0551 97.2614 63.083 138.627 38.1026C125.411 25.4418 107.806 18.3821 89.4987 18.4019C50.2178 18.4019 18.3598 50.2317 18.3598 89.4986C18.3491 99.3827 20.4062 109.16 24.3992 118.202C28.3922 127.245 34.2329 135.354 41.5464 142.008Z" fill="url(#paint3_radial_110_2)"/>
<g style="mix-blend-mode:screen" opacity="0.6">
<path d="M87.2736 157.033C87.0764 157.022 86.8912 156.934 86.7572 156.789C86.6232 156.644 86.5508 156.453 86.5553 156.256C86.5588 156.158 86.5815 156.061 86.6224 155.972C86.6633 155.883 86.7214 155.803 86.7935 155.737C86.8655 155.67 86.9501 155.619 87.0422 155.585C87.1343 155.551 87.2321 155.536 87.3301 155.54C87.4286 155.543 87.5255 155.565 87.6153 155.605C87.7051 155.646 87.7859 155.704 87.8528 155.776C87.9198 155.848 87.9716 155.933 88.0052 156.026C88.0388 156.118 88.0535 156.216 88.0485 156.315C88.0415 156.507 87.9606 156.688 87.8228 156.822C87.6849 156.956 87.5007 157.031 87.3086 157.033H87.2816H87.2736ZM98.3557 155.852C98.3404 155.755 98.3446 155.656 98.3679 155.561C98.3912 155.465 98.4332 155.376 98.4915 155.297C98.5498 155.218 98.6233 155.151 98.7076 155.1C98.7919 155.05 98.8853 155.017 98.9826 155.003C99.1797 154.978 99.3788 155.031 99.5375 155.15C99.6962 155.27 99.802 155.446 99.8327 155.643C99.8565 155.838 99.8029 156.035 99.6832 156.191C99.5635 156.347 99.3873 156.451 99.1924 156.479C99.1581 156.492 99.1214 156.497 99.0848 156.495C98.905 156.496 98.7312 156.431 98.5966 156.312C98.462 156.193 98.3762 156.028 98.3557 155.85V155.852ZM75.4409 155.449C75.2469 155.405 75.0781 155.286 74.9717 155.119C74.8652 154.951 74.8298 154.748 74.8731 154.554C74.8953 154.458 74.9361 154.368 74.9932 154.289C75.0503 154.21 75.1227 154.142 75.206 154.091C75.2894 154.04 75.382 154.006 75.4786 153.99C75.5753 153.975 75.674 153.979 75.7691 154.002C75.8643 154.022 75.9547 154.061 76.0349 154.116C76.115 154.172 76.1835 154.242 76.2362 154.324C76.289 154.406 76.3251 154.497 76.3424 154.593C76.3596 154.688 76.3578 154.787 76.3369 154.882C76.3004 155.049 76.2081 155.199 76.0752 155.308C75.9423 155.416 75.7766 155.476 75.605 155.479C75.5492 155.474 75.4942 155.464 75.4409 155.446V155.449ZM109.879 153.36C109.847 153.267 109.834 153.168 109.841 153.07C109.848 152.972 109.874 152.877 109.919 152.789C109.963 152.701 110.024 152.623 110.099 152.56C110.174 152.496 110.261 152.448 110.355 152.419C110.448 152.387 110.547 152.374 110.645 152.381C110.744 152.388 110.839 152.415 110.927 152.459C111.015 152.504 111.093 152.566 111.156 152.641C111.22 152.716 111.268 152.803 111.297 152.897C111.328 152.99 111.34 153.088 111.333 153.186C111.326 153.283 111.299 153.379 111.255 153.466C111.211 153.553 111.149 153.631 111.075 153.694C111 153.758 110.914 153.806 110.821 153.836C110.742 153.854 110.662 153.864 110.581 153.865C110.427 153.865 110.276 153.815 110.151 153.724C110.027 153.633 109.934 153.504 109.887 153.357L109.879 153.36ZM64.0655 151.776C63.9759 151.738 63.8947 151.683 63.8266 151.614C63.7584 151.544 63.7048 151.462 63.6688 151.372C63.6327 151.281 63.615 151.185 63.6166 151.088C63.6182 150.99 63.6391 150.895 63.6781 150.805C63.7559 150.622 63.9031 150.477 64.0875 150.401C64.2719 150.326 64.4787 150.326 64.6629 150.402C64.8441 150.483 64.9864 150.631 65.0593 150.816C65.1323 151 65.1299 151.206 65.0529 151.389C64.9946 151.522 64.8987 151.635 64.7768 151.715C64.6549 151.794 64.5124 151.836 64.3669 151.835C64.2658 151.836 64.1658 151.815 64.0737 151.773L64.0655 151.776ZM120.767 148.818C120.674 148.645 120.654 148.443 120.709 148.254C120.765 148.066 120.894 147.907 121.066 147.813C121.241 147.72 121.446 147.7 121.636 147.756C121.826 147.813 121.986 147.941 122.083 148.114C122.176 148.289 122.196 148.493 122.141 148.683C122.085 148.873 121.957 149.033 121.784 149.13C121.673 149.188 121.549 149.22 121.424 149.222C121.29 149.217 121.16 149.178 121.046 149.107C120.933 149.037 120.839 148.938 120.775 148.821L120.767 148.818ZM53.5485 146.13C53.3844 146.021 53.2702 145.851 53.2308 145.658C53.1915 145.465 53.2303 145.264 53.3387 145.1C53.392 145.017 53.4612 144.946 53.5425 144.891C53.6237 144.836 53.715 144.797 53.8114 144.778C53.9077 144.759 54.007 144.759 54.1033 144.779C54.1995 144.798 54.2908 144.837 54.3718 144.893C54.5376 145 54.6541 145.169 54.6959 145.362C54.7377 145.555 54.7015 145.756 54.5951 145.923C54.5261 146.025 54.4325 146.108 54.3231 146.165C54.2136 146.222 54.0916 146.25 53.9682 146.248C53.822 146.253 53.6778 146.211 53.5565 146.13H53.5485ZM130.687 142.43C130.625 142.354 130.579 142.267 130.552 142.173C130.524 142.079 130.516 141.981 130.527 141.883C130.538 141.786 130.568 141.692 130.616 141.607C130.664 141.522 130.728 141.447 130.805 141.387C130.88 141.323 130.967 141.276 131.06 141.246C131.154 141.217 131.252 141.207 131.35 141.216C131.447 141.225 131.542 141.254 131.628 141.3C131.715 141.347 131.791 141.41 131.852 141.486C131.916 141.564 131.963 141.654 131.992 141.751C132.021 141.847 132.03 141.949 132.019 142.049C132.008 142.149 131.977 142.246 131.928 142.334C131.879 142.422 131.813 142.499 131.734 142.562C131.601 142.666 131.437 142.724 131.268 142.726C131.157 142.722 131.047 142.694 130.948 142.642C130.849 142.591 130.763 142.519 130.695 142.43H130.687ZM44.2153 138.698C44.1436 138.632 44.0858 138.552 44.0454 138.463C44.0049 138.374 43.9826 138.278 43.9796 138.18C43.9766 138.083 43.993 137.986 44.0279 137.894C44.0628 137.803 44.1155 137.72 44.1829 137.649C44.3209 137.506 44.5099 137.423 44.7088 137.418C44.9078 137.413 45.1007 137.486 45.2457 137.622C45.389 137.76 45.4722 137.948 45.4772 138.147C45.4822 138.345 45.4087 138.537 45.2725 138.682C45.2001 138.754 45.1141 138.811 45.0194 138.849C44.9247 138.887 44.8232 138.906 44.721 138.905C44.6285 138.905 44.5369 138.887 44.4515 138.851C44.366 138.816 44.2884 138.764 44.2233 138.698H44.2153ZM139.307 134.369C139.157 134.238 139.065 134.052 139.051 133.853C139.037 133.654 139.102 133.458 139.232 133.307C139.363 133.157 139.548 133.066 139.747 133.052C139.945 133.038 140.141 133.102 140.292 133.232C140.44 133.365 140.529 133.551 140.54 133.749C140.551 133.948 140.483 134.142 140.351 134.291C140.285 134.373 140.201 134.44 140.105 134.487C140.01 134.533 139.906 134.558 139.8 134.56C139.62 134.558 139.448 134.49 139.315 134.369H139.307ZM36.3429 129.742C36.2269 129.581 36.1792 129.381 36.2099 129.185C36.2406 128.989 36.3475 128.813 36.5071 128.696C36.586 128.637 36.6758 128.595 36.7714 128.571C36.8669 128.548 36.9662 128.543 37.0634 128.559C37.1606 128.574 37.2539 128.608 37.3376 128.66C37.4213 128.712 37.4938 128.78 37.5509 128.86C37.6648 129.021 37.7114 129.221 37.6807 129.416C37.6501 129.611 37.5447 129.787 37.3869 129.906C37.258 129.99 37.1076 130.036 36.9536 130.037C36.8371 130.038 36.7222 130.011 36.6177 129.96C36.5131 129.909 36.4219 129.834 36.351 129.742H36.3429ZM36.3429 52.5602C36.2621 52.5038 36.1933 52.4321 36.1404 52.349C36.0876 52.2659 36.0518 52.1731 36.0351 52.0761C36.0183 51.9791 36.0209 51.8798 36.0428 51.7838C36.0647 51.6878 36.1054 51.5971 36.1626 51.5169C36.2812 51.3586 36.457 51.2528 36.6525 51.2221C36.848 51.1915 37.0479 51.2384 37.2092 51.3529C37.2901 51.4092 37.3589 51.481 37.4117 51.5642C37.4645 51.6474 37.5003 51.7402 37.5168 51.8374C37.5333 51.9345 37.5303 52.0339 37.508 52.1298C37.4857 52.2257 37.4446 52.3163 37.3869 52.3962C37.3159 52.4908 37.2235 52.5673 37.1174 52.6196C37.0113 52.6719 36.8944 52.6985 36.7761 52.6973C36.6285 52.6923 36.4855 52.6447 36.3644 52.5602H36.3429ZM139.038 47.516C138.974 47.4427 138.925 47.3573 138.894 47.2649C138.863 47.1724 138.85 47.0746 138.857 46.9773C138.864 46.88 138.891 46.7851 138.935 46.698C138.979 46.6109 139.039 46.5335 139.114 46.4701C139.261 46.3409 139.454 46.2752 139.65 46.2873C139.846 46.2994 140.029 46.3883 140.16 46.5346C140.227 46.6071 140.278 46.6923 140.312 46.7851C140.345 46.8779 140.359 46.9764 140.353 47.0747C140.347 47.1731 140.322 47.2693 140.278 47.3575C140.234 47.4458 140.173 47.5244 140.098 47.5886C139.962 47.7066 139.786 47.7699 139.606 47.7661C139.502 47.7665 139.4 47.7443 139.305 47.7011C139.211 47.6579 139.127 47.5948 139.06 47.516H139.038ZM43.9919 43.5662C43.9244 43.4949 43.8717 43.411 43.8366 43.3193C43.8016 43.2276 43.785 43.1299 43.7878 43.0317C43.7905 42.9336 43.8126 42.837 43.8527 42.7474C43.8928 42.6578 43.9501 42.577 44.0215 42.5095C44.1661 42.3735 44.3586 42.3 44.5571 42.305C44.7556 42.31 44.944 42.3932 45.0815 42.5364C45.1491 42.6069 45.2021 42.69 45.2372 42.7811C45.2723 42.8722 45.2889 42.9694 45.2862 43.0669C45.2834 43.1645 45.2614 43.2605 45.2212 43.3495C45.181 43.4384 45.1234 43.5185 45.052 43.585C44.9868 43.6531 44.9082 43.7069 44.8211 43.743C44.7341 43.7791 44.6404 43.7967 44.5462 43.7948C44.4432 43.7957 44.3411 43.7759 44.2459 43.7366C44.1507 43.6974 44.0643 43.6394 43.9919 43.5662ZM130.601 39.4927C130.445 39.3685 130.344 39.1875 130.322 38.9894C130.299 38.7913 130.356 38.5922 130.48 38.436C130.604 38.2823 130.783 38.1837 130.979 38.1615C131.175 38.1394 131.372 38.1955 131.527 38.3177C131.604 38.378 131.668 38.453 131.715 38.5383C131.763 38.6236 131.793 38.7175 131.804 38.8146C131.815 38.9117 131.807 39.01 131.78 39.1038C131.752 39.1976 131.706 39.285 131.645 39.361C131.576 39.4482 131.487 39.5178 131.386 39.5646C131.285 39.6113 131.175 39.6337 131.064 39.6299C130.901 39.6375 130.74 39.5912 130.606 39.4981L130.601 39.4927ZM53.1154 36.0779C53.0059 35.9136 52.9662 35.7125 53.005 35.5188C53.0439 35.3252 53.1581 35.155 53.3225 35.0455C53.4041 34.9916 53.4955 34.9544 53.5915 34.9359C53.6874 34.9175 53.7862 34.9181 53.8819 34.9378C53.9777 34.9576 54.0685 34.996 54.1494 35.0509C54.2302 35.1059 54.2993 35.1762 54.3529 35.2579C54.4079 35.3377 54.4466 35.4277 54.4667 35.5225C54.4867 35.6174 54.4877 35.7152 54.4697 35.8104C54.4517 35.9057 54.415 35.9964 54.3617 36.0774C54.3084 36.1584 54.2396 36.228 54.1592 36.2823C54.0361 36.3687 53.89 36.4165 53.7395 36.4194C53.6201 36.4146 53.5035 36.3817 53.3993 36.3232C53.295 36.2648 53.206 36.1826 53.1395 36.0833L53.1154 36.0779ZM120.84 33.0907C120.752 33.0452 120.674 32.9826 120.611 32.9065C120.547 32.8305 120.5 32.7427 120.471 32.648C120.441 32.5534 120.432 32.4539 120.441 32.3554C120.451 32.2569 120.481 32.1614 120.528 32.0744C120.624 31.902 120.785 31.7742 120.974 31.7185C121.164 31.6627 121.368 31.6833 121.542 31.7759C121.628 31.8216 121.704 31.8838 121.765 31.959C121.827 32.0341 121.873 32.1207 121.9 32.2137C121.928 32.3068 121.937 32.4044 121.927 32.5009C121.917 32.5975 121.887 32.691 121.841 32.7762C121.779 32.8968 121.684 32.9981 121.569 33.0692C121.453 33.1403 121.32 33.1784 121.184 33.1795C121.068 33.1799 120.953 33.1512 120.851 33.0961L120.84 33.0907ZM63.4198 30.3428C63.342 30.1608 63.3391 29.9555 63.4116 29.7713C63.4841 29.5871 63.6262 29.4389 63.8072 29.3587C63.9897 29.2801 64.1958 29.2767 64.3807 29.3492C64.5656 29.4217 64.7144 29.5643 64.7946 29.7459C64.8717 29.9287 64.874 30.1344 64.8011 30.3189C64.7281 30.5033 64.5858 30.6519 64.4046 30.7327C64.3112 30.7729 64.2103 30.793 64.1086 30.7918C63.9649 30.7908 63.8245 30.7484 63.7043 30.6697C63.584 30.591 63.489 30.4794 63.4306 30.3482L63.4198 30.3428ZM110.083 28.536C109.898 28.471 109.745 28.3366 109.656 28.1612C109.567 27.9858 109.55 27.7829 109.607 27.5949C109.669 27.4073 109.803 27.2519 109.98 27.1627C110.156 27.0735 110.361 27.0578 110.549 27.119C110.643 27.1482 110.73 27.1959 110.805 27.2594C110.881 27.3229 110.942 27.4008 110.987 27.4885C111.032 27.5762 111.058 27.672 111.065 27.7702C111.072 27.8683 111.06 27.9669 111.028 28.06C110.981 28.2087 110.887 28.3381 110.761 28.4292C110.634 28.5203 110.481 28.5681 110.326 28.5655C110.248 28.5706 110.169 28.5625 110.094 28.5413L110.083 28.536ZM74.5961 26.5355C74.5742 26.4398 74.5716 26.3407 74.5882 26.2439C74.6048 26.1472 74.6404 26.0547 74.6929 25.9717C74.7454 25.8888 74.8138 25.817 74.8942 25.7605C74.9745 25.7041 75.0652 25.6641 75.1611 25.6428H75.1476C75.3431 25.5977 75.5485 25.6317 75.7189 25.7375C75.8893 25.8433 76.011 26.0123 76.0571 26.2074C76.0979 26.3995 76.0612 26.6 75.9548 26.7652C75.8485 26.9303 75.6811 27.0469 75.4893 27.0894C75.4357 27.1046 75.3807 27.1145 75.3252 27.119C75.1579 27.1172 74.9961 27.0591 74.8658 26.9543C74.7355 26.8494 74.6443 26.7038 74.6069 26.5408L74.5961 26.5355ZM98.7028 25.9816C98.5078 25.9549 98.3312 25.8523 98.2113 25.6963C98.0914 25.5402 98.038 25.3433 98.0625 25.1481C98.0918 24.9544 98.1951 24.7796 98.3506 24.6603C98.506 24.541 98.7016 24.4865 98.8964 24.5082C98.9938 24.5198 99.0879 24.5506 99.1732 24.599C99.2585 24.6473 99.3334 24.7122 99.3932 24.7899C99.4531 24.8675 99.4969 24.9563 99.522 25.0511C99.5471 25.1458 99.553 25.2446 99.5395 25.3417C99.5191 25.5219 99.4334 25.6884 99.2985 25.8098C99.1637 25.9311 98.9892 25.9989 98.8077 26.0004C98.7757 26.0033 98.7435 25.9987 98.7135 25.987L98.7028 25.9816ZM87.0529 25.5057C86.9558 25.5115 86.8585 25.498 86.7667 25.4659C86.6748 25.4338 86.5902 25.3837 86.5179 25.3187C86.4455 25.2536 86.3869 25.1749 86.3452 25.087C86.3036 24.9991 86.2799 24.9037 86.2755 24.8066C86.2685 24.7085 86.2811 24.6099 86.3127 24.5167C86.3442 24.4235 86.394 24.3375 86.4591 24.2637C86.5242 24.1899 86.6034 24.1298 86.6919 24.0868C86.7805 24.0438 86.8766 24.0189 86.9749 24.0134C87.0735 24.0084 87.1722 24.023 87.2651 24.0566C87.358 24.0901 87.4434 24.1417 87.516 24.2086C87.5887 24.2754 87.6472 24.3561 87.6882 24.4459C87.7293 24.5356 87.7521 24.6327 87.7552 24.7313C87.7603 24.8283 87.7461 24.9254 87.7135 25.0169C87.6809 25.1084 87.6305 25.1925 87.5653 25.2645C87.5 25.3364 87.4212 25.3948 87.3333 25.4362C87.2454 25.4776 87.15 25.5012 87.0529 25.5057Z" fill="url(#paint4_linear_110_2)"/>
<path d="M94.8258 41.6088L90.7578 39.1996L86.6898 41.6115L87.7229 36.9975L84.1715 33.8786L88.8798 33.4376L90.7524 29.0952L92.6277 33.4349L97.3387 33.8732L93.79 36.9975L94.8258 41.6088Z" fill="url(#paint5_linear_110_2)"/>
<path d="M105.935 40.614L103.231 39.0115L100.527 40.6167L101.213 37.5488L98.8534 35.4757L101.982 35.1827L103.225 32.2949L104.474 35.1827L107.603 35.4731L105.246 37.5488L105.935 40.614Z" fill="url(#paint6_linear_110_2)"/>
<path d="M80.4344 40.614L77.7305 39.0115L75.0292 40.6167L75.7153 37.5488L73.3531 35.4757L76.4848 35.1827L77.7305 32.2949L78.9762 35.1827L82.1052 35.4731L79.7457 37.5488L80.4344 40.614Z" fill="url(#paint7_linear_110_2)"/>
<path d="M94.2688 136.447L90.1981 138.859L86.1302 136.45L87.1687 141.061L83.6199 144.186L88.3283 144.624L90.2062 148.964L92.0761 144.621L96.7871 144.18L93.2357 141.059L94.2688 136.447Z" fill="url(#paint8_linear_110_2)"/>
<path d="M80.4317 137.442L77.7278 139.047L75.0212 137.445L75.7126 140.51L73.3531 142.586L76.4848 142.879L77.7305 145.764L78.9762 142.873L82.1052 142.58L79.743 140.507L80.4317 137.442Z" fill="url(#paint9_linear_110_2)"/>
<path d="M105.243 140.507L105.929 137.442L103.225 139.047L100.521 137.445L101.213 140.51L98.8507 142.586L101.982 142.879L103.228 145.764L104.474 142.873L107.603 142.58L105.243 140.507Z" fill="url(#paint10_linear_110_2)"/>
</g>
<path d="M86.6037 156.024C86.4063 156.014 86.2207 155.927 86.0865 155.782C85.9523 155.637 85.8802 155.445 85.8854 155.247C85.8938 155.05 85.9804 154.863 86.1262 154.729C86.272 154.595 86.465 154.524 86.663 154.532C86.7613 154.535 86.858 154.558 86.9475 154.599C87.037 154.64 87.1175 154.698 87.1841 154.77C87.2508 154.843 87.3023 154.928 87.3357 155.02C87.3691 155.113 87.3836 155.211 87.3785 155.309C87.3715 155.502 87.2895 155.685 87.1498 155.819C87.0102 155.952 86.8239 156.026 86.6306 156.024H86.6037ZM97.6858 154.847C97.6705 154.75 97.6749 154.65 97.6984 154.555C97.7219 154.459 97.7641 154.369 97.8227 154.29C97.8812 154.211 97.955 154.145 98.0395 154.094C98.1241 154.044 98.218 154.011 98.3154 153.997C98.5121 153.973 98.7104 154.026 98.8689 154.145C99.0274 154.263 99.1336 154.439 99.1655 154.634C99.1893 154.83 99.1353 155.027 99.0151 155.184C98.8949 155.34 98.718 155.443 98.5226 155.471C98.4884 155.484 98.4515 155.49 98.4149 155.487C98.2359 155.488 98.0629 155.424 97.9284 155.306C97.794 155.188 97.7076 155.024 97.6858 154.847ZM74.771 154.441C74.6751 154.419 74.5843 154.379 74.5038 154.323C74.4233 154.267 74.3547 154.195 74.302 154.112C74.2493 154.029 74.2135 153.937 74.1965 153.84C74.1796 153.743 74.1819 153.644 74.2034 153.548C74.2248 153.452 74.2652 153.362 74.3221 153.282C74.3791 153.203 74.4514 153.135 74.5349 153.084C74.6184 153.032 74.7114 152.998 74.8083 152.983C74.9052 152.968 75.0042 152.973 75.0993 152.997C75.1946 153.016 75.2851 153.055 75.3655 153.109C75.4458 153.164 75.5144 153.234 75.5672 153.316C75.6201 153.398 75.6561 153.489 75.6733 153.585C75.6904 153.68 75.6882 153.779 75.667 153.873C75.631 154.041 75.539 154.192 75.4061 154.301C75.2731 154.41 75.107 154.471 74.9351 154.473C74.8792 154.47 74.824 154.459 74.771 154.441ZM109.209 152.354C109.177 152.261 109.164 152.162 109.171 152.064C109.178 151.966 109.204 151.87 109.249 151.782C109.293 151.694 109.355 151.616 109.431 151.553C109.506 151.49 109.594 151.442 109.688 151.413C109.781 151.382 109.88 151.369 109.978 151.376C110.076 151.383 110.171 151.409 110.259 151.454C110.346 151.499 110.424 151.56 110.487 151.636C110.551 151.711 110.598 151.798 110.627 151.892C110.658 151.985 110.67 152.083 110.663 152.18C110.656 152.278 110.629 152.373 110.585 152.46C110.541 152.548 110.48 152.625 110.405 152.689C110.33 152.752 110.244 152.8 110.151 152.83C110.072 152.847 109.992 152.857 109.911 152.86C109.757 152.859 109.607 152.809 109.483 152.718C109.358 152.628 109.266 152.5 109.217 152.354H109.209ZM63.3957 150.771C63.3061 150.733 63.2249 150.678 63.1568 150.608C63.0887 150.539 63.0349 150.456 62.9989 150.366C62.9628 150.276 62.9451 150.179 62.9467 150.082C62.9483 149.985 62.9693 149.889 63.0083 149.8C63.0861 149.617 63.2331 149.471 63.4175 149.396C63.602 149.32 63.8088 149.321 63.993 149.397C64.174 149.477 64.3163 149.625 64.3893 149.809C64.4622 149.993 64.46 150.198 64.3831 150.381C64.3255 150.515 64.2298 150.629 64.1078 150.708C63.9858 150.788 63.8429 150.83 63.6971 150.83C63.5963 150.83 63.4965 150.81 63.4038 150.771H63.3957ZM120.097 147.813C120.007 147.64 119.988 147.438 120.045 147.252C120.101 147.065 120.23 146.908 120.401 146.815C120.577 146.722 120.781 146.701 120.972 146.758C121.162 146.814 121.322 146.943 121.418 147.117C121.511 147.291 121.532 147.496 121.476 147.685C121.42 147.875 121.292 148.036 121.12 148.133C121.008 148.19 120.885 148.22 120.759 148.222C120.624 148.217 120.493 148.177 120.378 148.106C120.264 148.035 120.169 147.934 120.106 147.816L120.097 147.813ZM52.8786 145.124C52.7149 145.015 52.6013 144.845 52.5625 144.652C52.5237 144.459 52.5628 144.258 52.6714 144.094C52.7244 144.012 52.7935 143.941 52.8745 143.886C52.9555 143.83 53.0468 143.792 53.1429 143.773C53.239 143.753 53.338 143.754 53.434 143.773C53.5301 143.793 53.6211 143.832 53.7019 143.887C53.7842 143.94 53.8554 144.009 53.9112 144.089C53.967 144.17 54.0064 144.26 54.0272 144.356C54.0479 144.452 54.0495 144.55 54.032 144.647C54.0145 144.743 53.9782 144.835 53.9252 144.917C53.8563 145.019 53.7628 145.103 53.6533 145.16C53.5437 145.217 53.4217 145.245 53.2983 145.242C53.1525 145.247 53.0089 145.207 52.8867 145.127L52.8786 145.124ZM130.025 141.438C129.964 141.361 129.919 141.274 129.891 141.18C129.864 141.086 129.856 140.987 129.867 140.89C129.878 140.793 129.908 140.699 129.955 140.613C130.003 140.528 130.067 140.453 130.144 140.392C130.219 140.329 130.306 140.282 130.399 140.253C130.493 140.224 130.591 140.214 130.688 140.224C130.786 140.233 130.88 140.262 130.967 140.308C131.053 140.355 131.129 140.418 131.19 140.494C131.254 140.572 131.302 140.662 131.33 140.759C131.359 140.855 131.368 140.956 131.357 141.057C131.346 141.157 131.315 141.254 131.266 141.342C131.217 141.43 131.151 141.507 131.072 141.57C130.94 141.674 130.777 141.731 130.609 141.734C130.496 141.731 130.385 141.703 130.284 141.652C130.183 141.601 130.094 141.528 130.025 141.438ZM43.5535 137.706C43.4822 137.639 43.4248 137.559 43.3845 137.47C43.3443 137.382 43.322 137.286 43.319 137.188C43.316 137.091 43.3322 136.994 43.3669 136.902C43.4016 136.811 43.4541 136.728 43.5212 136.657C43.6587 136.513 43.8476 136.43 44.0465 136.424C44.2455 136.419 44.4386 136.492 44.584 136.628C44.7283 136.764 44.8124 136.953 44.8179 137.151C44.8235 137.35 44.75 137.542 44.6135 137.687C44.541 137.76 44.4545 137.817 44.3593 137.856C44.2641 137.895 44.1621 137.914 44.0593 137.913C43.9646 137.913 43.871 137.893 43.784 137.856C43.6971 137.818 43.6187 137.764 43.5535 137.695V137.706ZM138.646 133.371C138.495 133.241 138.403 133.056 138.389 132.857C138.375 132.659 138.44 132.463 138.57 132.312C138.701 132.162 138.886 132.07 139.085 132.056C139.283 132.042 139.48 132.107 139.63 132.237C139.778 132.37 139.867 132.556 139.878 132.754C139.889 132.953 139.822 133.148 139.689 133.296C139.623 133.375 139.541 133.438 139.448 133.482C139.355 133.526 139.254 133.55 139.151 133.552C138.966 133.559 138.784 133.495 138.646 133.371ZM35.6811 128.747C35.5659 128.586 35.5185 128.386 35.5492 128.19C35.5799 127.995 35.6863 127.819 35.8453 127.701C35.9243 127.642 36.0141 127.6 36.1096 127.576C36.2052 127.553 36.3044 127.548 36.4017 127.564C36.4989 127.579 36.5921 127.614 36.6758 127.665C36.7595 127.717 36.832 127.785 36.8892 127.865C37.0036 128.026 37.0504 128.225 37.0198 128.42C36.9891 128.615 36.8834 128.79 36.7251 128.908C36.5978 128.994 36.4481 129.041 36.2946 129.043C36.1757 129.043 36.0581 129.016 35.9516 128.964C35.845 128.911 35.7524 128.834 35.6811 128.739V128.747ZM35.6946 51.5654C35.6138 51.5091 35.5448 51.4373 35.492 51.3541C35.4392 51.2709 35.4036 51.1781 35.3871 51.081C35.3706 50.9839 35.3734 50.8845 35.3957 50.7885C35.4181 50.6926 35.4593 50.6021 35.517 50.5222C35.6356 50.3638 35.8114 50.258 36.0069 50.2274C36.2024 50.1967 36.4022 50.2437 36.5636 50.3581C36.6445 50.4145 36.7133 50.4863 36.7661 50.5695C36.8189 50.6526 36.8546 50.7455 36.8712 50.8426C36.8877 50.9397 36.8847 51.0391 36.8624 51.135C36.8401 51.231 36.7988 51.3215 36.7411 51.4014C36.6693 51.495 36.5768 51.571 36.4709 51.6232C36.365 51.6754 36.2485 51.7025 36.1304 51.7025C35.9737 51.6995 35.8218 51.6488 35.6946 51.5573V51.5654ZM138.39 46.5186C138.326 46.4453 138.277 46.3601 138.246 46.2679C138.216 46.1757 138.203 46.0783 138.21 45.9813C138.217 45.8843 138.243 45.7896 138.287 45.7028C138.331 45.616 138.392 45.5387 138.465 45.4754C138.613 45.3462 138.806 45.2805 139.002 45.2925C139.198 45.3046 139.381 45.3935 139.512 45.5399C139.579 45.6124 139.63 45.6975 139.663 45.7903C139.696 45.8831 139.711 45.9816 139.705 46.08C139.699 46.1784 139.673 46.2745 139.63 46.3628C139.586 46.4511 139.525 46.5297 139.45 46.5939C139.314 46.7119 139.138 46.7751 138.958 46.7713C138.851 46.7754 138.744 46.7553 138.646 46.7125C138.547 46.6696 138.46 46.6052 138.39 46.5239V46.5186ZM43.3274 42.5768C43.2598 42.5055 43.207 42.4215 43.172 42.3297C43.137 42.2379 43.1205 42.14 43.1235 42.0418C43.1265 41.9436 43.1489 41.8469 43.1895 41.7573C43.23 41.6678 43.2878 41.5872 43.3597 41.5201C43.5038 41.3842 43.6959 41.3109 43.894 41.3159C44.0921 41.3209 44.2801 41.404 44.4171 41.547C44.4845 41.6175 44.5372 41.7006 44.5724 41.7915C44.6075 41.8825 44.6244 41.9794 44.6219 42.0769C44.6194 42.1744 44.5977 42.2704 44.5579 42.3594C44.5182 42.4485 44.4611 42.5287 44.3902 42.5956C44.3241 42.6632 44.2449 42.7167 44.1575 42.7528C44.0701 42.7888 43.9762 42.8067 43.8816 42.8053C43.7781 42.8052 43.6757 42.7842 43.5804 42.7436C43.4852 42.7029 43.3991 42.6434 43.3274 42.5688V42.5768ZM129.937 38.5033C129.781 38.3787 129.681 38.1975 129.659 37.9994C129.637 37.8013 129.694 37.6025 129.818 37.4466C129.941 37.2927 130.12 37.1936 130.315 37.1709C130.511 37.1483 130.707 37.2039 130.862 37.3257C130.939 37.3862 131.003 37.4613 131.051 37.5467C131.099 37.6322 131.129 37.7262 131.14 37.8234C131.152 37.9206 131.143 38.0191 131.116 38.1132C131.09 38.2073 131.044 38.2951 130.983 38.3716C130.913 38.4586 130.824 38.5283 130.723 38.5749C130.622 38.6216 130.511 38.644 130.399 38.6404C130.233 38.6454 130.07 38.5942 129.937 38.4952V38.5033ZM52.4508 35.0859C52.3963 35.0048 52.3585 34.9138 52.3394 34.818C52.3204 34.7222 52.3204 34.6236 52.3397 34.5278C52.359 34.4321 52.397 34.3411 52.4516 34.2601C52.5063 34.1792 52.5764 34.1098 52.658 34.0561C52.7394 34.0021 52.8306 33.9647 52.9265 33.946C53.0224 33.9274 53.121 33.9278 53.2167 33.9473C53.3125 33.9668 53.4034 34.0049 53.4843 34.0595C53.5653 34.1142 53.6347 34.1843 53.6885 34.2658C53.7436 34.3458 53.7822 34.436 53.8022 34.5311C53.8223 34.6261 53.8234 34.7242 53.8054 34.8196C53.7874 34.9151 53.7507 35.0061 53.6974 35.0873C53.6441 35.1685 53.5752 35.2384 53.4947 35.2929C53.3724 35.379 53.2273 35.4267 53.0777 35.43C52.9532 35.4266 52.8314 35.3927 52.723 35.3313C52.6147 35.2699 52.5231 35.1828 52.4562 35.0778L52.4508 35.0859ZM120.178 32.1014C120.09 32.0558 120.012 31.9932 119.949 31.9172C119.885 31.8413 119.838 31.7535 119.808 31.6589C119.779 31.5644 119.769 31.4649 119.778 31.3664C119.788 31.2679 119.817 31.1723 119.863 31.085C119.959 30.9116 120.119 30.7829 120.309 30.727C120.499 30.6711 120.703 30.6925 120.878 30.7865C120.963 30.8322 121.039 30.8945 121.101 30.9695C121.162 31.0446 121.208 31.1311 121.236 31.224C121.264 31.317 121.274 31.4145 121.264 31.5111C121.254 31.6077 121.225 31.7014 121.179 31.7867C121.115 31.9068 121.021 32.0076 120.905 32.0786C120.789 32.1495 120.656 32.188 120.52 32.1901C120.401 32.1876 120.285 32.1543 120.184 32.0933L120.178 32.1014ZM62.7554 29.3534C62.6777 29.1707 62.6749 28.9647 62.7479 28.7801C62.821 28.5954 62.9638 28.4469 63.1455 28.3666C63.3276 28.2889 63.533 28.2859 63.7173 28.3584C63.9016 28.4308 64.05 28.5729 64.1302 28.7538C64.2074 28.9363 64.2101 29.1417 64.1377 29.3261C64.0653 29.5105 63.9236 29.6593 63.7428 29.7406C63.649 29.7829 63.547 29.804 63.4441 29.8025C63.298 29.801 63.1556 29.757 63.0342 29.6758C62.9128 29.5946 62.8177 29.4798 62.7607 29.3454L62.7554 29.3534ZM109.422 27.5465C109.236 27.4821 109.082 27.348 108.992 27.1725C108.903 26.997 108.885 26.7938 108.943 26.6055C109.006 26.4176 109.14 26.262 109.317 26.1724C109.493 26.0828 109.698 26.0664 109.887 26.1269C109.981 26.1567 110.067 26.2049 110.142 26.2685C110.217 26.3322 110.278 26.4101 110.323 26.4977C110.367 26.5853 110.393 26.6808 110.4 26.7787C110.407 26.8766 110.395 26.9749 110.363 27.0679C110.317 27.217 110.223 27.3471 110.097 27.4387C109.97 27.5303 109.817 27.5786 109.661 27.5761C109.581 27.5777 109.502 27.5649 109.427 27.5385L109.422 27.5465ZM73.9369 25.5515C73.8935 25.3579 73.9287 25.155 74.0345 24.9872C74.1404 24.8194 74.3085 24.7004 74.502 24.6561C74.6981 24.6117 74.9039 24.6463 75.0746 24.7525C75.2454 24.8587 75.3673 25.028 75.4141 25.2235C75.4535 25.4154 75.4161 25.6152 75.31 25.78C75.2039 25.9448 75.0376 26.0616 74.8464 26.1054C74.7927 26.1194 74.7376 26.1284 74.6822 26.1322C74.5098 26.137 74.3412 26.0816 74.2052 25.9757C74.0692 25.8697 73.9744 25.7197 73.9369 25.5515ZM98.0464 24.9976C97.8512 24.9708 97.6743 24.8684 97.554 24.7124C97.4337 24.5565 97.3796 24.3596 97.4033 24.1641C97.4321 23.9694 97.5354 23.7935 97.6915 23.6736C97.8477 23.5537 98.0444 23.4991 98.24 23.5214C98.3374 23.5333 98.4315 23.5645 98.5167 23.6132C98.6019 23.6619 98.6764 23.7271 98.7361 23.805C98.7957 23.8829 98.8393 23.9719 98.864 24.0668C98.8888 24.1617 98.8943 24.2606 98.8803 24.3577C98.86 24.5372 98.7746 24.703 98.6403 24.8238C98.506 24.9447 98.332 25.0123 98.1512 25.0137C98.1143 25.0126 98.0784 25.0024 98.0464 24.9841V24.9976ZM86.3939 24.5217C86.2966 24.5271 86.1993 24.5132 86.1074 24.4808C86.0155 24.4484 85.931 24.3981 85.8587 24.3329C85.7864 24.2676 85.7277 24.1887 85.6861 24.1006C85.6445 24.0126 85.6208 23.9172 85.6163 23.8199C85.6094 23.7217 85.6222 23.6231 85.6539 23.5298C85.6856 23.4366 85.7356 23.3507 85.801 23.277C85.8664 23.2034 85.946 23.1436 86.0349 23.1011C86.1237 23.0585 86.2201 23.0342 86.3185 23.0294C86.4169 23.024 86.5153 23.0383 86.608 23.0716C86.7008 23.1048 86.786 23.1563 86.8584 23.223C86.9309 23.2896 86.9893 23.3701 87.0301 23.4597C87.071 23.5493 87.0934 23.6462 87.0961 23.7446C87.1012 23.8418 87.087 23.9389 87.0544 24.0306C87.0219 24.1222 86.9715 24.2066 86.9063 24.2788C86.841 24.351 86.7622 24.4095 86.6743 24.4512C86.5863 24.4929 86.4911 24.5168 86.3939 24.5217Z" fill="black"/>
<path d="M94.1559 40.6059L90.0879 38.1967L86.0199 40.6085L87.053 35.9946L83.5016 32.8729L88.2099 32.4347L90.0852 28.0923L91.9604 32.432L96.6688 32.8702L93.12 35.9919L94.1559 40.6059Z" fill="black"/>
<path d="M105.268 39.6111L102.561 38.0086L99.857 39.6138L100.543 36.5459L98.1835 34.4728L101.313 34.1797L102.558 31.292L103.807 34.1771L106.933 34.4701L104.576 36.5459L105.268 39.6111Z" fill="black"/>
<path d="M79.7672 39.6111L77.0633 38.0086L74.3594 39.6138L75.0455 36.5459L72.6859 34.4728L75.8149 34.1797L77.0606 31.292L78.3063 34.1771L81.438 34.4701L79.0785 36.5459L79.7672 39.6111Z" fill="black"/>
<path d="M93.599 135.442L89.531 137.853L85.4603 135.447L86.5015 140.058L82.9501 143.183L87.6584 143.621L89.5364 147.961L91.4089 143.618L96.1173 143.177L92.5631 140.056L93.599 135.442Z" fill="black"/>
<path d="M79.7619 136.437L77.0579 138.042L74.354 136.442L75.0428 139.507L72.6859 141.583L75.8149 141.873L77.0606 144.758L78.3063 141.871L81.438 141.577L79.0758 139.504L79.7619 136.437Z" fill="black"/>
<path d="M104.573 139.504L105.259 136.437L102.558 138.042L99.8516 136.442L100.543 139.507L98.1808 141.583L101.313 141.873L102.561 144.758L103.807 141.871L106.933 141.577L104.573 139.504Z" fill="black"/>
<path d="M48.6731 96.9825H52.143V119.063H48.6731V96.9825ZM54.7417 96.9825H60.0411C61.7655 96.9825 63.0588 97.4451 63.9211 98.3704C64.7833 99.2957 65.2144 100.652 65.2144 102.44V113.606C65.2144 115.394 64.7833 116.75 63.9211 117.676C63.0588 118.601 61.7655 119.063 60.0411 119.063H54.7417V96.9825ZM59.978 115.909C60.5458 115.909 60.9769 115.741 61.2713 115.404C61.5868 115.068 61.7445 114.521 61.7445 113.764V102.282C61.7445 101.525 61.5868 100.978 61.2713 100.642C60.9769 100.305 60.5458 100.137 59.978 100.137H58.2115V115.909H59.978ZM67.5565 96.9825H77.0198V100.137H71.0264V105.973H75.7896V109.127H71.0264V115.909H77.0198V119.063H67.5565V96.9825ZM81.6973 96.9825H86.3974L89.9934 119.063H86.5235L85.8926 114.679V114.742H81.9496L81.3187 119.063H78.1012L81.6973 96.9825ZM85.4826 111.745L83.9369 100.831H83.8738L82.3597 111.745H85.4826ZM99.4101 96.9825H104.11L107.706 119.063H104.236L103.606 114.679V114.742H99.6625L99.0316 119.063H95.8141L99.4101 96.9825ZM103.195 111.745L101.65 100.831H101.587L100.073 111.745H103.195ZM109.39 96.9825H114.5C116.224 96.9825 117.518 97.4451 118.38 98.3704C119.242 99.2957 119.673 100.652 119.673 102.44V104.616C119.673 106.404 119.242 107.76 118.38 108.685C117.518 109.611 116.224 110.073 114.5 110.073H112.86V119.063H109.39V96.9825ZM114.5 106.919C115.068 106.919 115.488 106.761 115.762 106.446C116.056 106.13 116.203 105.594 116.203 104.837V102.219C116.203 101.462 116.056 100.925 115.762 100.61C115.488 100.295 115.068 100.137 114.5 100.137H112.86V106.919H114.5ZM121.558 96.9825H126.668C128.392 96.9825 129.686 97.4451 130.548 98.3704C131.41 99.2957 131.841 100.652 131.841 102.44V104.616C131.841 106.404 131.41 107.76 130.548 108.685C129.686 109.611 128.392 110.073 126.668 110.073H125.028V119.063H121.558V96.9825ZM126.668 106.919C127.236 106.919 127.656 106.761 127.93 106.446C128.224 106.13 128.371 105.594 128.371 104.837V102.219C128.371 101.462 128.224 100.925 127.93 100.61C127.656 100.295 127.236 100.137 126.668 100.137H125.028V106.919H126.668Z" fill="black"/>
<path d="M52.1519 87.4056C49.9889 87.4056 48.3396 86.7972 47.204 85.5805C46.0684 84.3368 45.5006 82.5658 45.5006 80.2675V58.6101H49.9619V80.592C49.9619 81.5654 50.1511 82.2684 50.5297 82.701C50.9352 83.1336 51.503 83.3499 52.2331 83.3499C52.9631 83.3499 53.5174 83.1336 53.8959 82.701C54.3015 82.2684 54.5043 81.5654 54.5043 80.592V58.6101H58.8033V80.2675C58.8033 82.5658 58.2355 84.3368 57.0999 85.5805C55.9643 86.7972 54.315 87.4056 52.1519 87.4056ZM61.9807 58.6101H67.5775L71.9171 75.6035H71.9982V58.6101H75.9728V87H71.3899L66.0364 66.2754H65.9553V87H61.9807V58.6101ZM79.2887 58.6101H83.7499V87H79.2887V58.6101ZM100.232 89.6362C98.2037 89.6362 96.96 88.7304 96.5004 86.9189C95.6622 87.2433 94.6753 87.4056 93.5397 87.4056C91.3496 87.4056 89.6733 86.7837 88.5106 85.5399C87.348 84.2962 86.7667 82.5387 86.7667 80.2675V65.3426C86.7667 63.0714 87.348 61.3139 88.5106 60.0702C89.6733 58.8264 91.3496 58.2046 93.5397 58.2046C95.7298 58.2046 97.4061 58.8264 98.5688 60.0702C99.7314 61.3139 100.313 63.0714 100.313 65.3426V80.2675C100.313 82.1602 99.8936 83.7149 99.0554 84.9316C99.2177 85.202 99.4205 85.3777 99.6638 85.4588C99.9071 85.5399 100.259 85.5805 100.718 85.5805H101.408V89.6362H100.232ZM93.5397 83.3499C95.0809 83.3499 95.8514 82.4171 95.8514 80.5514V65.0587C95.8514 63.1931 95.0809 62.2603 93.5397 62.2603C91.9985 62.2603 91.2279 63.1931 91.2279 65.0587V80.5514C91.2279 82.4171 91.9985 83.3499 93.5397 83.3499ZM109.819 87.4056C107.656 87.4056 106.007 86.7972 104.871 85.5805C103.735 84.3368 103.168 82.5658 103.168 80.2675V58.6101H107.629V80.592C107.629 81.5654 107.818 82.2684 108.197 82.701C108.602 83.1336 109.17 83.3499 109.9 83.3499C110.63 83.3499 111.184 83.1336 111.563 82.701C111.968 82.2684 112.171 81.5654 112.171 80.592V58.6101H116.47V80.2675C116.47 82.5658 115.902 84.3368 114.767 85.5805C113.631 86.7972 111.982 87.4056 109.819 87.4056ZM119.648 58.6101H131.815V62.6658H124.109V70.1689H130.233V74.2246H124.109V82.9443H131.815V87H119.648V58.6101Z" fill="black"/>
</g>
<defs>
<linearGradient id="paint0_linear_110_2" x1="25.5353" y1="22.9864" x2="148.899" y2="151.268" gradientUnits="userSpaceOnUse">
<stop stop-color="#EEBE47"/>
<stop offset="0.12" stop-color="#F8DB77"/>
<stop offset="0.21" stop-color="#FFEE96"/>
<stop offset="0.45" stop-color="#A2621E"/>
<stop offset="0.67" stop-color="#EEA54C"/>
<stop offset="1" stop-color="#EEBE47"/>
</linearGradient>
<linearGradient id="paint1_linear_110_2" x1="8.07183" y1="89.5002" x2="170.929" y2="89.5001" gradientUnits="userSpaceOnUse">
<stop stop-color="#EEBE47"/>
<stop offset="0.12" stop-color="#F8DB77"/>
<stop offset="0.21" stop-color="#FFEE96"/>
<stop offset="0.45" stop-color="#A2621E"/>
<stop offset="0.67" stop-color="#EEA54C"/>
<stop offset="1" stop-color="#EEBE47"/>
</linearGradient>
<linearGradient id="paint2_linear_110_2" x1="42.5041" y1="38.2747" x2="134.412" y2="138.581" gradientUnits="userSpaceOnUse">
<stop stop-color="#EEBE47"/>
<stop offset="0.12" stop-color="#F8DB77"/>
<stop offset="0.21" stop-color="#FFEE96"/>
<stop offset="0.45" stop-color="#A2621E"/>
<stop offset="0.67" stop-color="#EEA54C"/>
<stop offset="1" stop-color="#EEBE47"/>
</linearGradient>
<radialGradient id="paint3_radial_110_2" cx="0" cy="0" r="1" gradientUnits="userSpaceOnUse" gradientTransform="translate(111.588 3.56521) scale(241.769 241.616)">
<stop stop-color="#FFF1D1"/>
<stop offset="0.05" stop-color="#FFC94C"/>
<stop offset="0.14" stop-color="#A2621E"/>
<stop offset="0.16" stop-color="#965B1C"/>
<stop offset="0.25" stop-color="#6E4314"/>
<stop offset="0.34" stop-color="#4C2E0E"/>
<stop offset="0.44" stop-color="#301D09"/>
<stop offset="0.55" stop-color="#1B1005"/>
<stop offset="0.66" stop-color="#0C0702"/>
<stop offset="0.8" stop-color="#030201"/>
<stop offset="1"/>
</radialGradient>
<linearGradient id="paint4_linear_110_2" x1="24.6259" y1="16.3719" x2="159.426" y2="168.66" gradientUnits="userSpaceOnUse">
<stop stop-color="#EEBE47"/>
<stop offset="0.12" stop-color="#F8DB77"/>
<stop offset="0.21" stop-color="#FFEE96"/>
<stop offset="0.45" stop-color="#A2621E"/>
<stop offset="0.67" stop-color="#EEA54C"/>
<stop offset="1" stop-color="#EEBE47"/>
</linearGradient>
<linearGradient id="paint5_linear_110_2" x1="51.7755" y1="-7.66037" x2="186.578" y2="144.633" gradientUnits="userSpaceOnUse">
<stop stop-color="#EEBE47"/>
<stop offset="0.12" stop-color="#F8DB77"/>
<stop offset="0.21" stop-color="#FFEE96"/>
<stop offset="0.45" stop-color="#A2621E"/>
<stop offset="0.67" stop-color="#EEA54C"/>
<stop offset="1" stop-color="#EEBE47"/>
</linearGradient>
<linearGradient id="paint6_linear_110_2" x1="58.3779" y1="-13.5057" x2="193.18" y2="138.788" gradientUnits="userSpaceOnUse">
<stop stop-color="#EEBE47"/>
<stop offset="0.12" stop-color="#F8DB77"/>
<stop offset="0.21" stop-color="#FFEE96"/>
<stop offset="0.45" stop-color="#A2621E"/>
<stop offset="0.67" stop-color="#EEA54C"/>
<stop offset="1" stop-color="#EEBE47"/>
</linearGradient>
<linearGradient id="paint7_linear_110_2" x1="44.0915" y1="-0.855014" x2="178.888" y2="151.43" gradientUnits="userSpaceOnUse">
<stop stop-color="#EEBE47"/>
<stop offset="0.12" stop-color="#F8DB77"/>
<stop offset="0.21" stop-color="#FFEE96"/>
<stop offset="0.45" stop-color="#A2621E"/>
<stop offset="0.67" stop-color="#EEA54C"/>
<stop offset="1" stop-color="#EEBE47"/>
</linearGradient>
<linearGradient id="paint8_linear_110_2" x1="-0.890589" y1="38.9548" x2="133.912" y2="191.246" gradientUnits="userSpaceOnUse">
<stop stop-color="#EEBE47"/>
<stop offset="0.12" stop-color="#F8DB77"/>
<stop offset="0.21" stop-color="#FFEE96"/>
<stop offset="0.45" stop-color="#A2621E"/>
<stop offset="0.67" stop-color="#EEA54C"/>
<stop offset="1" stop-color="#EEBE47"/>
</linearGradient>
<linearGradient id="paint9_linear_110_2" x1="-7.47954" y1="44.8165" x2="127.301" y2="197.083" gradientUnits="userSpaceOnUse">
<stop stop-color="#EEBE47"/>
<stop offset="0.12" stop-color="#F8DB77"/>
<stop offset="0.21" stop-color="#FFEE96"/>
<stop offset="0.45" stop-color="#A2621E"/>
<stop offset="0.67" stop-color="#EEA54C"/>
<stop offset="1" stop-color="#EEBE47"/>
</linearGradient>
<linearGradient id="paint10_linear_110_2" x1="6.82032" y1="32.1792" x2="141.588" y2="184.432" gradientUnits="userSpaceOnUse">
<stop stop-color="#EEBE47"/>
<stop offset="0.12" stop-color="#F8DB77"/>
<stop offset="0.21" stop-color="#FFEE96"/>
<stop offset="0.45" stop-color="#A2621E"/>
<stop offset="0.67" stop-color="#EEA54C"/>
<stop offset="1" stop-color="#EEBE47"/>
</linearGradient>
<clipPath id="clip0_110_2">
<rect width="179" height="179" fill="white"/>
</clipPath>
</defs>
</svg>
