<svg width="193" height="187" viewBox="0 0 193 187" fill="none" xmlns="http://www.w3.org/2000/svg">
<g clip-path="url(#clip0_650_59)">
<path d="M145.339 10.1846L135.895 32.1291L155.6 33.9638L145.339 10.1846ZM26.1039 42.4238L0.00457764 44.8822L25.7055 67.5216L18.2214 100.981L47.661 83.4853L57.5055 89.3171L61.1021 73.2365L33.3636 48.8152L26.1039 42.4238ZM193.002 44.8409L168.222 42.5292L161.159 48.7578L133.457 73.2067L136.891 88.5259L145.362 83.4807L174.817 100.951L167.301 67.4987L193.002 44.8409ZM57.1736 32.2988L47.6312 10.1846L37.3129 34.1702L38.1324 34.0922L57.1736 32.2988Z" fill="url(#paint0_linear_650_59)"/>
<path d="M133.205 111.19L97.1353 89.7986L61.0907 111.22L70.253 70.2528L38.7758 42.5337L80.505 38.6007L97.0964 0.0480957L113.724 38.587L155.454 42.481L123.999 70.2299L133.205 111.19Z" fill="url(#paint1_linear_650_59)"/>
<g style="mix-blend-mode:screen" opacity="0.6">
<path d="M145.339 11.9572L154.497 33.1565L136.93 31.5191L145.348 11.9572M47.6404 11.9572L56.1547 31.6796L38.4301 33.3514L47.6404 11.9481M25.8772 43.1369L32.908 49.3288L60.3215 73.4887L57.0247 88.2208L48.0205 82.8797L47.6633 82.6688L47.3062 82.8797L19.2631 99.5451L26.3946 67.6683L26.4839 67.2624L26.1726 66.9872L1.67581 45.4302L25.8612 43.153M168.451 43.2562L191.31 45.3889L166.848 66.9757L166.534 67.2509L166.626 67.6568L173.787 99.5337L145.728 82.8912L145.371 82.6802L145.014 82.8912L137.363 87.4388L134.224 73.4566L161.624 49.2852L168.457 43.2562M145.334 10.1845L135.89 32.1291L155.596 33.9637L145.334 10.1799V10.1845ZM47.6244 10.1845L37.306 34.1701L38.1256 34.0921L57.1666 32.2988L47.6244 10.1845ZM26.1039 42.4237L0.00457764 44.8821L25.7055 67.5215L18.2214 100.981L47.661 83.4852L57.5055 89.317L61.1021 73.2364L33.3636 48.8151L26.1039 42.4237ZM168.222 42.5292L161.159 48.7578L133.457 73.2066L136.891 88.5258L145.362 83.4806L174.817 100.951L167.301 67.4986L192.991 44.8362L168.222 42.5292Z" fill="url(#paint2_linear_650_59)"/>
<path d="M97.2406 1.77955L113.225 38.8255L113.39 39.2085L113.802 39.2452L153.913 42.9809L123.679 69.6611L123.367 69.9363L123.459 70.3446L132.305 109.716L97.6366 89.1542L97.2772 88.9409L96.9223 89.1542L62.2721 109.746L71.0818 70.3491L71.1733 69.9432L70.8597 69.668L40.6027 43.0314L80.7133 39.2543L81.1277 39.2153L81.2925 38.8324L97.2406 1.77955ZM97.2406 0.00683594L80.6515 38.5549L38.9177 42.4856L70.3972 70.2047L61.2395 111.172L97.2864 89.7504L133.354 111.142L124.15 70.1817L155.605 42.4328L113.876 38.5342L97.2452 0.00683594H97.2406Z" fill="url(#paint3_linear_650_59)"/>
</g>
<path style="mix-blend-mode:screen" d="M61.2327 111.17L67.3545 107.533C77.6201 78.946 97.5522 54.8609 123.692 39.4562L113.862 38.5389L97.2314 0.0114746L80.6515 38.5549L38.9177 42.4856L70.3972 70.2047L61.2327 111.17Z" fill="url(#paint4_radial_650_59)"/>
</g>
<path d="M15.0483 158.349C13.1874 158.349 11.7684 157.826 10.7914 156.779C9.81442 155.709 9.32592 154.185 9.32592 152.208V150.289H12.9548V152.487C12.9548 154.069 13.6177 154.86 14.9436 154.86C16.2696 154.86 16.9325 154.069 16.9325 152.487V147.009C16.9325 145.404 16.2696 144.601 14.9436 144.601C13.6177 144.601 12.9548 145.404 12.9548 147.009V147.218H9.32592L10.0238 133.575H20.1426V137.064H13.4433L13.1292 142.891H13.199C13.9201 141.705 15.0251 141.112 16.5138 141.112C17.9095 141.112 18.9679 141.589 19.689 142.543C20.4102 143.496 20.7707 144.88 20.7707 146.695V152.208C20.7707 154.185 20.2822 155.709 19.3052 156.779C18.3282 157.826 16.9093 158.349 15.0483 158.349ZM33.9792 158.349C32.1183 158.349 30.7109 157.826 29.7572 156.779C28.8035 155.709 28.3266 154.185 28.3266 152.208V150.812H31.9554V152.487C31.9554 154.069 32.6184 154.86 33.9443 154.86C34.5957 154.86 35.0842 154.674 35.4098 154.301C35.7587 153.906 35.9332 153.278 35.9332 152.417C35.9332 151.394 35.7006 150.498 35.2354 149.73C34.7701 148.94 33.9094 147.997 32.6533 146.904C31.0715 145.508 29.9666 144.252 29.3385 143.136C28.7104 141.996 28.3964 140.717 28.3964 139.298C28.3964 137.367 28.8849 135.878 29.8619 134.831C30.8389 133.761 32.2578 133.226 34.1188 133.226C35.9565 133.226 37.3405 133.761 38.271 134.831C39.2247 135.878 39.7016 137.39 39.7016 139.367V140.379H36.0728V139.123C36.0728 138.286 35.9099 137.681 35.5843 137.309C35.2586 136.913 34.7817 136.715 34.1537 136.715C32.8743 136.715 32.2346 137.495 32.2346 139.053C32.2346 139.937 32.4672 140.763 32.9324 141.531C33.4209 142.298 34.2933 143.229 35.5494 144.322C37.1544 145.718 38.2594 146.986 38.8642 148.125C39.469 149.265 39.7714 150.603 39.7714 152.138C39.7714 154.139 39.2713 155.674 38.271 156.744C37.294 157.814 35.8634 158.349 33.9792 158.349ZM44.9729 137.064H40.9602V133.575H52.8237V137.064H48.811V158H44.9729V137.064ZM56.0464 133.575H61.2454L65.2231 158H61.3849L60.6871 153.15V153.22H56.3255L55.6277 158H52.0686L56.0464 133.575ZM60.2335 149.905L58.5237 137.832H58.454L56.7791 149.905H60.2335ZM67.0853 133.575H72.7728C74.75 133.575 76.1922 134.04 77.0995 134.971C78.0067 135.878 78.4603 137.285 78.4603 139.193V140.693C78.4603 143.229 77.6228 144.834 75.948 145.508V145.578C76.8785 145.857 77.5298 146.427 77.902 147.288C78.2974 148.149 78.4952 149.3 78.4952 150.742V155.034C78.4952 155.732 78.5184 156.302 78.5649 156.744C78.6115 157.163 78.7278 157.581 78.9139 158H75.0059C74.8663 157.605 74.7733 157.232 74.7268 156.883C74.6802 156.535 74.657 155.906 74.657 154.999V150.533C74.657 149.416 74.4709 148.637 74.0987 148.195C73.7498 147.753 73.1333 147.532 72.2494 147.532H70.9235V158H67.0853V133.575ZM72.3192 144.043C73.0868 144.043 73.6567 143.845 74.0289 143.45C74.4243 143.054 74.6221 142.391 74.6221 141.461V139.577C74.6221 138.693 74.4592 138.053 74.1336 137.658C73.8312 137.262 73.3427 137.064 72.6681 137.064H70.9235V144.043H72.3192ZM86.1478 158.349C84.2869 158.349 82.8795 157.826 81.9258 156.779C80.9721 155.709 80.4952 154.185 80.4952 152.208V150.812H84.1241V152.487C84.1241 154.069 84.787 154.86 86.1129 154.86C86.7643 154.86 87.2528 154.674 87.5784 154.301C87.9274 153.906 88.1018 153.278 88.1018 152.417C88.1018 151.394 87.8692 150.498 87.404 149.73C86.9387 148.94 86.078 147.997 84.8219 146.904C83.2401 145.508 82.1352 144.252 81.5071 143.136C80.879 141.996 80.565 140.717 80.565 139.298C80.565 137.367 81.0535 135.878 82.0305 134.831C83.0075 133.761 84.4265 133.226 86.2874 133.226C88.1251 133.226 89.5092 133.761 90.4396 134.831C91.3934 135.878 91.8702 137.39 91.8702 139.367V140.379H88.2414V139.123C88.2414 138.286 88.0786 137.681 87.7529 137.309C87.4272 136.913 86.9504 136.715 86.3223 136.715C85.0429 136.715 84.4032 137.495 84.4032 139.053C84.4032 139.937 84.6358 140.763 85.101 141.531C85.5895 142.298 86.4619 143.229 87.718 144.322C89.3231 145.718 90.428 146.986 91.0328 148.125C91.6376 149.265 91.94 150.603 91.94 152.138C91.94 154.139 91.4399 155.674 90.4396 156.744C89.4626 157.814 88.032 158.349 86.1478 158.349ZM99.729 133.575H105.416C107.394 133.575 108.836 134.04 109.743 134.971C110.65 135.878 111.104 137.285 111.104 139.193V140.693C111.104 143.229 110.267 144.834 108.592 145.508V145.578C109.522 145.857 110.174 146.427 110.546 147.288C110.941 148.149 111.139 149.3 111.139 150.742V155.034C111.139 155.732 111.162 156.302 111.209 156.744C111.255 157.163 111.371 157.581 111.558 158H107.65C107.51 157.605 107.417 157.232 107.37 156.883C107.324 156.535 107.301 155.906 107.301 154.999V150.533C107.301 149.416 107.115 148.637 106.742 148.195C106.393 147.753 105.777 147.532 104.893 147.532H103.567V158H99.729V133.575ZM104.963 144.043C105.731 144.043 106.3 143.845 106.673 143.45C107.068 143.054 107.266 142.391 107.266 141.461V139.577C107.266 138.693 107.103 138.053 106.777 137.658C106.475 137.262 105.986 137.064 105.312 137.064H103.567V144.043H104.963ZM116.768 133.575H121.967L125.945 158H122.106L121.408 153.15V153.22H117.047L116.349 158H112.79L116.768 133.575ZM120.955 149.905L119.245 137.832H119.175L117.501 149.905H120.955ZM129.206 137.064H125.193V133.575H137.057V137.064H133.044V158H129.206V137.064ZM138.915 133.575H142.753V158H138.915V133.575ZM145.628 133.575H150.443L154.177 148.195H154.246V133.575H157.666V158H153.723L149.117 140.17H149.047V158H145.628V133.575ZM165.962 158.349C164.101 158.349 162.682 157.826 161.705 156.779C160.728 155.709 160.239 154.185 160.239 152.208V139.367C160.239 137.39 160.728 135.878 161.705 134.831C162.682 133.761 164.101 133.226 165.962 133.226C167.823 133.226 169.242 133.761 170.219 134.831C171.196 135.878 171.684 137.39 171.684 139.367V141.461H168.055V139.123C168.055 137.518 167.392 136.715 166.066 136.715C164.741 136.715 164.078 137.518 164.078 139.123V152.487C164.078 154.069 164.741 154.86 166.066 154.86C167.392 154.86 168.055 154.069 168.055 152.487V147.707H166.136V144.217H171.684V152.208C171.684 154.185 171.196 155.709 170.219 156.779C169.242 157.826 167.823 158.349 165.962 158.349ZM179.138 158.349C177.277 158.349 175.87 157.826 174.916 156.779C173.962 155.709 173.486 154.185 173.486 152.208V150.812H177.114V152.487C177.114 154.069 177.777 154.86 179.103 154.86C179.755 154.86 180.243 154.674 180.569 154.301C180.918 153.906 181.092 153.278 181.092 152.417C181.092 151.394 180.859 150.498 180.394 149.73C179.929 148.94 179.068 147.997 177.812 146.904C176.23 145.508 175.125 144.252 174.497 143.136C173.869 141.996 173.555 140.717 173.555 139.298C173.555 137.367 174.044 135.878 175.021 134.831C175.998 133.761 177.417 133.226 179.278 133.226C181.115 133.226 182.499 133.761 183.43 134.831C184.384 135.878 184.861 137.39 184.861 139.367V140.379H181.232V139.123C181.232 138.286 181.069 137.681 180.743 137.309C180.418 136.913 179.941 136.715 179.313 136.715C178.033 136.715 177.393 137.495 177.393 139.053C177.393 139.937 177.626 140.763 178.091 141.531C178.58 142.298 179.452 143.229 180.708 144.322C182.313 145.718 183.418 146.986 184.023 148.125C184.628 149.265 184.93 150.603 184.93 152.138C184.93 154.139 184.43 155.674 183.43 156.744C182.453 157.814 181.022 158.349 179.138 158.349Z" fill="url(#paint5_linear_650_59)"/>
<defs>
<linearGradient id="paint0_linear_650_59" x1="32.2464" y1="5.75621" x2="188.54" y2="148.335" gradientUnits="userSpaceOnUse">
<stop stop-color="#EEBE47"/>
<stop offset="0.12" stop-color="#F8DB77"/>
<stop offset="0.21" stop-color="#FFEE96"/>
<stop offset="0.45" stop-color="#A2621E"/>
<stop offset="0.67" stop-color="#EEA54C"/>
<stop offset="1" stop-color="#EEBE47"/>
</linearGradient>
<linearGradient id="paint1_linear_650_59" x1="56.7638" y1="29.7027" x2="144.625" y2="109.854" gradientUnits="userSpaceOnUse">
<stop stop-color="#EEBE47"/>
<stop offset="0.12" stop-color="#F8DB77"/>
<stop offset="0.21" stop-color="#FFEE96"/>
<stop offset="0.45" stop-color="#A2621E"/>
<stop offset="0.67" stop-color="#EEA54C"/>
<stop offset="1" stop-color="#EEBE47"/>
</linearGradient>
<linearGradient id="paint2_linear_650_59" x1="34.126" y1="7.47384" x2="157.464" y2="119.99" gradientUnits="userSpaceOnUse">
<stop stop-color="#EEBE47"/>
<stop offset="0.12" stop-color="#F8DB77"/>
<stop offset="0.21" stop-color="#FFEE96"/>
<stop offset="0.45" stop-color="#A2621E"/>
<stop offset="0.67" stop-color="#EEA54C"/>
<stop offset="1" stop-color="#EEBE47"/>
</linearGradient>
<linearGradient id="paint3_linear_650_59" x1="53.483" y1="26.5196" x2="139.205" y2="104.721" gradientUnits="userSpaceOnUse">
<stop stop-color="#EEBE47"/>
<stop offset="0.12" stop-color="#F8DB77"/>
<stop offset="0.21" stop-color="#FFEE96"/>
<stop offset="0.45" stop-color="#A2621E"/>
<stop offset="0.67" stop-color="#EEA54C"/>
<stop offset="1" stop-color="#EEBE47"/>
</linearGradient>
<radialGradient id="paint4_radial_650_59" cx="0" cy="0" r="1" gradientUnits="userSpaceOnUse" gradientTransform="translate(120.849 28.8359) scale(84.7725 84.9162)">
<stop stop-color="#FFF1D1"/>
<stop offset="0.05" stop-color="#FFC94C"/>
<stop offset="0.14" stop-color="#A2621E"/>
<stop offset="0.16" stop-color="#965B1C"/>
<stop offset="0.25" stop-color="#6E4314"/>
<stop offset="0.34" stop-color="#4C2E0E"/>
<stop offset="0.44" stop-color="#301D09"/>
<stop offset="0.55" stop-color="#1B1005"/>
<stop offset="0.66" stop-color="#0C0702"/>
<stop offset="0.8" stop-color="#030201"/>
<stop offset="1"/>
</radialGradient>
<linearGradient id="paint5_linear_650_59" x1="26.6905" y1="117.776" x2="93.2501" y2="236.414" gradientUnits="userSpaceOnUse">
<stop stop-color="#EEBE47"/>
<stop offset="0.12" stop-color="#F8DB77"/>
<stop offset="0.21" stop-color="#FFEE96"/>
<stop offset="0.45" stop-color="#A2621E"/>
<stop offset="0.67" stop-color="#EEA54C"/>
<stop offset="1" stop-color="#EEBE47"/>
</linearGradient>
<clipPath id="clip0_650_59">
<rect width="193" height="111.22" fill="white"/>
</clipPath>
</defs>
</svg>
