<svg width="224" height="179" viewBox="0 0 224 179" fill="none" xmlns="http://www.w3.org/2000/svg">
<path d="M57.5743 150.579C42.1236 157.046 29.2964 163.991 15.3867 173.336C15.554 167.753 16.0454 162.183 16.8582 156.657C11.3245 155.034 5.69384 153.761 -0.00012207 152.847C14.8944 141.663 31.3802 132.77 48.9087 126.466C52.3738 136.11 54.1092 140.932 57.5743 150.579Z" fill="url(#paint0_linear_650_61)"/>
<path d="M166.423 150.579C181.873 157.046 194.7 163.991 208.61 173.336C208.443 167.753 207.952 162.183 207.139 156.657C212.672 155.034 218.303 153.761 223.997 152.847C209.103 141.663 192.618 132.771 175.091 126.466C171.623 136.11 169.888 140.932 166.423 150.579Z" fill="url(#paint1_linear_650_61)"/>
<path d="M57.6004 150.648C46.143 148.22 40.0341 147.509 27.3462 147.436C22.4127 138.443 19.9605 133.951 15.0386 124.963C29.1427 124.255 35.9799 124.641 48.9348 126.539C52.3999 136.18 54.1353 141.004 57.6004 150.648Z" fill="url(#paint2_linear_650_61)"/>
<path d="M166.396 150.648C177.854 148.22 183.963 147.509 196.651 147.436L208.961 124.963C194.857 124.255 188.02 124.641 175.065 126.539C171.597 136.18 169.862 141.004 166.396 150.648Z" fill="url(#paint3_linear_650_61)"/>
<path d="M145.629 171.584C141.035 177.209 131.65 179.893 124.775 177.546C117.9 175.199 106.715 175.39 99.9245 177.967C93.1336 180.543 83.6582 178.173 78.8756 172.704C74.093 167.235 64.3218 161.809 57.1478 160.646C49.9739 159.483 42.9596 152.694 41.555 145.559C40.1504 138.425 34.3954 128.848 28.7654 124.252C23.1354 119.657 20.4538 110.277 22.7987 103.407C25.1436 96.5365 24.9608 85.3491 22.3808 78.5601C19.8009 71.7712 22.1777 62.313 27.6452 57.5201C33.1128 52.7272 38.5454 42.9615 39.7091 35.7954C40.8729 28.6292 47.6608 21.6139 54.8 20.2039C61.9391 18.7939 71.5189 13.0465 76.1158 7.42088C80.7127 1.7953 90.0923 -0.888391 96.9673 1.45874C103.842 3.80587 115.027 3.61441 121.821 1.04097C128.614 -1.53246 138.072 0.832081 142.866 6.29809C147.661 11.7641 157.426 17.1953 164.597 18.3616C171.768 19.5279 178.783 26.3111 180.19 33.4482C181.598 40.5854 187.35 50.1625 192.98 54.7581C198.61 59.3537 201.288 68.7306 198.943 75.6067C196.599 82.4827 196.784 93.6584 199.361 100.45C201.938 107.242 199.567 116.697 194.097 121.49C188.627 126.283 183.2 136.046 182.036 143.212C180.872 150.378 174.084 157.397 166.945 158.804C159.806 160.211 150.223 165.958 145.629 171.584Z" fill="url(#paint4_linear_650_61)"/>
<path d="M144.486 168.885C140.043 174.325 130.968 176.922 124.319 174.653C117.671 172.384 106.855 172.567 100.281 175.056C93.7082 177.546 84.5551 175.26 79.9292 169.97C75.3033 164.681 65.8511 159.436 58.9152 158.304C51.9792 157.173 45.1912 150.619 43.8244 143.728C42.4575 136.838 36.8971 127.563 31.4557 123.129C26.0143 118.696 23.4169 109.615 25.6864 102.968C27.9558 96.3216 27.7758 85.5057 25.2829 78.9401C22.79 72.3745 25.0828 63.2152 30.3703 58.5905C35.6579 53.9659 40.9136 44.5106 42.0396 37.5795C43.1656 30.6483 49.7301 23.8622 56.6226 22.4928C63.515 21.1234 72.793 15.5704 77.2273 10.1305C81.6617 4.69062 90.7481 2.09398 97.3968 4.36278C104.045 6.63158 114.861 6.44879 121.432 3.9595C128.002 1.4702 137.161 3.75932 141.787 9.04544C146.413 14.3316 155.868 19.5829 162.801 20.7115C169.734 21.8401 176.525 28.3999 177.892 35.2904C179.259 42.1809 184.816 51.4563 190.258 55.8895C195.699 60.3226 198.296 69.4065 196.027 76.0533C193.757 82.7001 193.94 93.5132 196.43 100.082C198.92 106.65 196.633 115.807 191.343 120.428C186.052 125.05 180.803 134.508 179.677 141.439C178.551 148.371 171.986 155.157 165.094 156.526C158.201 157.895 148.941 163.448 144.486 168.885Z" fill="black"/>
<path style="mix-blend-mode:screen" d="M43.8329 143.729C44.837 148.82 48.81 153.726 53.61 156.401C77.9429 101.663 122.541 58.477 178.043 35.9085C177.996 35.7026 177.941 35.4908 177.9 35.2877C176.542 28.3972 169.754 21.8345 162.81 20.7088C155.865 19.5831 146.419 14.326 141.796 9.04274C137.173 3.75952 128.008 1.46754 121.44 3.95683C114.873 6.44613 104.054 6.62888 97.4054 4.36008C90.7567 2.09128 81.679 4.68502 77.2359 10.1278C72.7928 15.5706 63.5149 21.1294 56.6311 22.4901C49.7474 23.8508 43.1742 30.6369 42.0482 37.5768C40.9222 44.5166 35.6636 53.9632 30.3789 58.5878C25.0942 63.2125 22.7987 72.3689 25.2916 78.9374C27.7845 85.5059 27.9643 96.316 25.6949 102.966C23.4255 109.615 26.023 118.685 31.4644 123.127C36.9058 127.569 42.4718 136.835 43.8329 143.729Z" fill="url(#paint5_radial_650_61)"/>
<path d="M105.99 169.965C105.812 169.956 105.639 169.911 105.479 169.834C105.319 169.757 105.176 169.649 105.058 169.516C104.94 169.383 104.85 169.228 104.793 169.06C104.736 168.892 104.712 168.715 104.724 168.537C104.744 168.182 104.904 167.849 105.169 167.611C105.434 167.373 105.782 167.251 106.138 167.27C106.315 167.28 106.489 167.325 106.649 167.402C106.809 167.479 106.952 167.588 107.07 167.721C107.188 167.854 107.278 168.009 107.336 168.177C107.393 168.345 107.417 168.523 107.406 168.7C107.386 169.041 107.237 169.362 106.989 169.597C106.741 169.832 106.413 169.963 106.071 169.965H105.99ZM120.866 168.149C120.84 167.972 120.851 167.793 120.896 167.62C120.94 167.448 121.019 167.286 121.127 167.144C121.235 167.002 121.37 166.883 121.525 166.794C121.679 166.705 121.85 166.648 122.027 166.626C122.38 166.576 122.738 166.668 123.023 166.883C123.309 167.097 123.497 167.416 123.547 167.769C123.572 167.944 123.563 168.122 123.519 168.293C123.475 168.465 123.397 168.626 123.291 168.767C123.185 168.909 123.052 169.028 122.9 169.118C122.748 169.208 122.579 169.267 122.404 169.292C122.349 169.292 122.279 169.292 122.212 169.292C121.891 169.293 121.579 169.18 121.334 168.973C121.088 168.766 120.924 168.477 120.872 168.16L120.866 168.149ZM89.799 167.354H89.8135C89.642 167.31 89.481 167.232 89.3398 167.125C89.1986 167.018 89.08 166.884 88.9909 166.731C88.9018 166.578 88.844 166.409 88.8209 166.234C88.7977 166.058 88.8096 165.88 88.8559 165.709C88.9479 165.365 89.1722 165.071 89.4799 164.892C89.7876 164.712 90.1537 164.662 90.4985 164.751H90.5129C90.8555 164.85 91.146 165.078 91.3222 165.387C91.4985 165.697 91.5465 166.063 91.4561 166.408C91.3782 166.695 91.2077 166.949 90.9711 167.129C90.7344 167.309 90.445 167.407 90.1474 167.406C90.0293 167.406 89.9119 167.388 89.799 167.354ZM136.601 164.522C136.48 164.187 136.497 163.817 136.649 163.494C136.8 163.171 137.073 162.921 137.408 162.799C137.744 162.682 138.112 162.701 138.435 162.852C138.757 163.002 139.008 163.273 139.134 163.605C139.258 163.943 139.242 164.317 139.09 164.643C138.938 164.97 138.663 165.222 138.325 165.346C138.177 165.396 138.022 165.42 137.866 165.416C137.587 165.417 137.314 165.329 137.087 165.166C136.859 165.003 136.689 164.773 136.601 164.508V164.522ZM74.4761 161.479C74.1596 161.316 73.9206 161.034 73.8118 160.695C73.703 160.356 73.7332 159.988 73.8957 159.671C73.9752 159.514 74.0852 159.374 74.2193 159.259C74.3535 159.145 74.509 159.058 74.6769 159.004C74.8448 158.95 75.0218 158.93 75.1975 158.945C75.3733 158.96 75.5443 159.009 75.7007 159.091C75.8582 159.17 75.9983 159.28 76.1129 159.414C76.2275 159.549 76.3143 159.704 76.3683 159.872C76.4223 160.04 76.4423 160.217 76.4274 160.392C76.4124 160.568 76.3627 160.739 76.2811 160.896C76.172 161.12 76.0016 161.309 75.7894 161.44C75.5773 161.572 75.3322 161.64 75.0826 161.638C74.8701 161.625 74.6631 161.566 74.4761 161.464V161.479ZM151.262 157.745C151.075 157.439 151.017 157.072 151.1 156.723C151.183 156.375 151.401 156.073 151.706 155.885C151.857 155.793 152.024 155.731 152.199 155.704C152.373 155.676 152.551 155.684 152.723 155.725C152.895 155.767 153.057 155.842 153.199 155.946C153.342 156.05 153.463 156.181 153.555 156.332C153.743 156.636 153.803 157.001 153.722 157.349C153.641 157.697 153.425 157.999 153.123 158.189C152.906 158.32 152.659 158.39 152.406 158.392C152.176 158.39 151.95 158.33 151.75 158.217C151.55 158.104 151.382 157.941 151.262 157.745ZM60.6738 152.598C60.3952 152.373 60.2163 152.048 60.1761 151.692C60.1359 151.336 60.2375 150.979 60.459 150.698C60.5702 150.559 60.7077 150.445 60.8634 150.36C61.0191 150.275 61.1901 150.222 61.3664 150.203C61.5428 150.185 61.721 150.201 61.891 150.252C62.061 150.302 62.2193 150.386 62.357 150.497C62.6351 150.719 62.8141 151.042 62.8549 151.395C62.8957 151.749 62.7949 152.104 62.5746 152.383C62.4474 152.543 62.2854 152.673 62.1009 152.761C61.9164 152.85 61.7142 152.895 61.5096 152.894C61.2012 152.897 60.9014 152.792 60.6622 152.598H60.6738ZM164.24 148.153C163.995 147.892 163.863 147.545 163.873 147.186C163.882 146.828 164.033 146.489 164.293 146.241C164.554 145.995 164.902 145.862 165.261 145.872C165.62 145.882 165.96 146.033 166.208 146.293C166.448 146.559 166.576 146.907 166.563 147.265C166.55 147.623 166.397 147.961 166.138 148.208C165.889 148.441 165.562 148.57 165.221 148.571C165.036 148.57 164.853 148.533 164.683 148.462C164.513 148.39 164.358 148.285 164.229 148.153H164.24ZM48.9378 141.132C48.8241 140.996 48.7384 140.839 48.6856 140.67C48.6328 140.501 48.6138 140.323 48.63 140.147C48.6462 139.971 48.6971 139.799 48.7798 139.643C48.8625 139.486 48.9753 139.347 49.1118 139.235C49.3854 139.005 49.739 138.892 50.0952 138.922C50.4514 138.952 50.7813 139.122 51.0128 139.394C51.2385 139.671 51.3464 140.025 51.3133 140.381C51.2802 140.736 51.1088 141.064 50.8358 141.295C50.593 141.5 50.2835 141.611 49.9652 141.605C49.7681 141.606 49.573 141.564 49.3937 141.483C49.2143 141.401 49.0548 141.281 48.9262 141.132H48.9378ZM175.019 136.136C174.725 135.93 174.525 135.615 174.463 135.262C174.4 134.909 174.48 134.545 174.685 134.25C174.892 133.957 175.207 133.759 175.561 133.698C175.915 133.637 176.278 133.719 176.571 133.925C176.716 134.027 176.839 134.156 176.933 134.306C177.027 134.455 177.091 134.621 177.121 134.796C177.151 134.97 177.146 135.148 177.107 135.32C177.068 135.492 176.995 135.655 176.893 135.799C176.769 135.977 176.603 136.123 176.411 136.224C176.219 136.325 176.005 136.378 175.788 136.38C175.508 136.383 175.235 136.297 175.007 136.136H175.019ZM39.7584 127.525C39.6747 127.369 39.6226 127.199 39.605 127.023C39.5873 126.847 39.6046 126.67 39.6558 126.501C39.7071 126.332 39.7913 126.175 39.9035 126.038C40.0158 125.902 40.1539 125.789 40.3099 125.706C40.466 125.623 40.6369 125.571 40.813 125.554C40.989 125.536 41.1667 125.554 41.336 125.605C41.5052 125.657 41.6627 125.741 41.7994 125.854C41.936 125.966 42.0491 126.104 42.1324 126.26C42.2997 126.575 42.3353 126.943 42.2314 127.284C42.1275 127.625 41.8925 127.911 41.578 128.079C41.3835 128.184 41.1663 128.239 40.9455 128.239C40.6992 128.242 40.4568 128.177 40.2452 128.051C40.0336 127.925 39.8612 127.743 39.7469 127.525H39.7584ZM183.144 122.19C182.817 122.046 182.559 121.779 182.428 121.446C182.297 121.113 182.303 120.742 182.445 120.414C182.514 120.251 182.614 120.104 182.741 119.981C182.867 119.857 183.016 119.76 183.181 119.695C183.345 119.629 183.52 119.597 183.697 119.6C183.873 119.603 184.048 119.641 184.209 119.712C184.372 119.781 184.519 119.882 184.643 120.009C184.766 120.135 184.863 120.285 184.928 120.449C184.994 120.614 185.026 120.789 185.023 120.966C185.02 121.142 184.982 121.317 184.912 121.479C184.808 121.722 184.636 121.929 184.416 122.075C184.195 122.221 183.937 122.299 183.673 122.3C183.487 122.298 183.304 122.26 183.133 122.19H183.144ZM33.5189 112.343C33.4216 112 33.4633 111.632 33.6349 111.319C33.8065 111.006 34.0943 110.774 34.436 110.672C34.606 110.622 34.7841 110.606 34.9602 110.625C35.1363 110.644 35.3068 110.698 35.4621 110.783C35.6174 110.868 35.7544 110.983 35.8651 111.121C35.9759 111.26 36.0584 111.418 36.1077 111.588C36.1575 111.758 36.1732 111.936 36.1541 112.112C36.1349 112.288 36.0811 112.459 35.9959 112.614C35.9107 112.769 35.7957 112.906 35.6575 113.017C35.5193 113.128 35.3607 113.21 35.1906 113.259C35.0683 113.296 34.9411 113.314 34.8134 113.312C34.52 113.314 34.2339 113.22 33.9983 113.045C33.7628 112.871 33.5906 112.624 33.5075 112.343H33.5189ZM188.252 106.888C187.903 106.809 187.6 106.596 187.406 106.296C187.212 105.995 187.144 105.631 187.216 105.281C187.251 105.108 187.32 104.944 187.42 104.798C187.519 104.651 187.646 104.527 187.794 104.43C187.942 104.334 188.108 104.268 188.282 104.236C188.456 104.204 188.634 104.207 188.806 104.245C188.981 104.28 189.147 104.35 189.295 104.45C189.443 104.549 189.569 104.677 189.667 104.826C189.765 104.975 189.832 105.142 189.866 105.317C189.899 105.492 189.897 105.672 189.86 105.847C189.794 106.149 189.628 106.42 189.388 106.616C189.148 106.811 188.849 106.92 188.54 106.923C188.429 106.911 188.336 106.897 188.241 106.888H188.252ZM30.5154 96.2145C30.4881 95.858 30.6031 95.5052 30.8354 95.2334C31.0676 94.9615 31.3982 94.7927 31.7546 94.7638C31.9315 94.7488 32.1095 94.769 32.2785 94.8233C32.4475 94.8776 32.604 94.9649 32.739 95.0801C32.874 95.1954 32.9847 95.3363 33.0648 95.4946C33.1449 95.653 33.1928 95.8257 33.2056 96.0027C33.2207 96.1786 33.2008 96.3558 33.1473 96.524C33.0937 96.6922 33.0074 96.8482 32.8933 96.983C32.7793 97.1178 32.6396 97.2288 32.4825 97.3095C32.3254 97.3902 32.1541 97.439 31.9781 97.4533H31.8707C31.5281 97.4589 31.1962 97.3339 30.9424 97.1039C30.6885 96.8738 30.5317 96.5559 30.5038 96.2145H30.5154ZM188.806 89.5067C188.805 89.1487 188.946 88.8046 189.197 88.55C189.449 88.2955 189.792 88.1512 190.15 88.1489C190.327 88.1485 190.503 88.1832 190.666 88.2509C190.83 88.3186 190.979 88.418 191.104 88.5434C191.229 88.6688 191.328 88.8177 191.396 88.9815C191.463 89.1454 191.497 89.3209 191.497 89.498C191.497 89.6749 191.463 89.8501 191.395 90.0136C191.327 90.1771 191.228 90.3257 191.103 90.4508C190.978 90.5759 190.829 90.675 190.666 90.7425C190.502 90.81 190.327 90.8446 190.15 90.8442C189.793 90.845 189.451 90.7049 189.197 90.4544C188.943 90.2039 188.799 89.8633 188.795 89.5067H188.806ZM31.9867 81.3164C31.6305 81.2707 31.3066 81.087 31.0846 80.8048C30.8626 80.5226 30.7604 80.1646 30.7998 79.8078C30.8524 79.4568 31.0389 79.1398 31.3203 78.9235C31.6017 78.7071 31.956 78.6081 32.3088 78.6472C32.6602 78.6943 32.9791 78.8777 33.1963 79.1579C33.4135 79.438 33.5117 79.7924 33.4696 80.1443C33.4318 80.4715 33.2749 80.7734 33.0287 80.9922C32.7824 81.2111 32.4641 81.3317 32.1346 81.3309H31.9867V81.3164ZM187.73 76.5873C187.7 76.413 187.705 76.2346 187.745 76.0623C187.784 75.8899 187.857 75.7271 187.96 75.5829C188.062 75.4388 188.192 75.3162 188.342 75.2222C188.491 75.1283 188.658 75.0647 188.833 75.0352C189.007 75.0037 189.187 75.0074 189.36 75.0462C189.533 75.0849 189.697 75.158 189.842 75.2609C189.986 75.3639 190.109 75.4948 190.202 75.6459C190.296 75.7969 190.358 75.9651 190.385 76.1405C190.418 76.3161 190.416 76.4966 190.378 76.6712C190.34 76.8458 190.267 77.011 190.164 77.1569C190.061 77.3028 189.929 77.4265 189.777 77.5205C189.625 77.6146 189.456 77.6771 189.279 77.7043C189.207 77.7116 189.134 77.7116 189.062 77.7043C188.743 77.7061 188.435 77.5948 188.191 77.3902C187.947 77.1857 187.783 76.9011 187.73 76.5873ZM35.2602 65.519C34.9237 65.4001 34.6468 65.155 34.4881 64.8354C34.3293 64.5159 34.3013 64.1471 34.41 63.8072C34.5282 63.4704 34.7733 63.193 35.0931 63.0342C35.413 62.8754 35.7822 62.8478 36.1222 62.9572C36.4591 63.0754 36.7366 63.3204 36.8954 63.6402C37.0543 63.9599 37.082 64.3291 36.9725 64.6689C36.882 64.9364 36.7097 65.1688 36.4801 65.3333C36.2505 65.4977 35.9751 65.586 35.6927 65.5857C35.5463 65.582 35.4009 65.5596 35.2602 65.519ZM183.528 61.3005C183.401 60.9683 183.41 60.5996 183.553 60.2739C183.695 59.9482 183.961 59.6917 184.291 59.5597C184.624 59.434 184.992 59.4438 185.318 59.587C185.644 59.7303 185.9 59.9955 186.032 60.3257C186.156 60.6588 186.145 61.0272 186.001 61.3524C185.858 61.6775 185.593 61.9337 185.263 62.0664C185.107 62.1202 184.943 62.1476 184.778 62.1477C184.509 62.1442 184.247 62.0614 184.024 61.9097C183.802 61.758 183.629 61.5441 183.528 61.2947V61.3005ZM41.7 50.7109C41.5467 50.6218 41.4125 50.5033 41.3051 50.3623C41.1977 50.2212 41.1193 50.0603 41.0743 49.8889C41.0292 49.7174 41.0185 49.5388 41.0427 49.3632C41.0669 49.1876 41.1255 49.0185 41.2153 48.8656C41.3993 48.5604 41.696 48.3398 42.0413 48.2514C42.3866 48.1629 42.7529 48.2136 43.0611 48.3927C43.2127 48.4819 43.3452 48.6002 43.4511 48.7407C43.5569 48.8811 43.6341 49.0411 43.6781 49.2114C43.722 49.3818 43.7318 49.5591 43.7071 49.7332C43.6824 49.9074 43.6237 50.075 43.5341 50.2264C43.4177 50.4314 43.2489 50.6018 43.0449 50.7201C42.8409 50.8384 42.6091 50.9003 42.3733 50.8994C42.1356 50.8955 41.9033 50.8284 41.7 50.705V50.7109ZM176.301 47.1829C176.107 46.8817 176.04 46.5162 176.113 46.1655C176.186 45.8148 176.395 45.507 176.693 45.3087C176.996 45.116 177.363 45.0506 177.714 45.1266C178.065 45.2027 178.372 45.4141 178.568 45.7149C178.664 45.8632 178.73 46.0291 178.761 46.203C178.793 46.3769 178.79 46.5553 178.752 46.728C178.714 46.9006 178.643 47.0641 178.541 47.2089C178.44 47.3537 178.311 47.477 178.162 47.5717C177.945 47.7136 177.692 47.7884 177.433 47.7864C177.209 47.7864 176.988 47.7308 176.79 47.6244C176.593 47.5181 176.425 47.3644 176.301 47.1771V47.1829ZM51.0011 37.5217C50.737 37.2826 50.5776 36.9492 50.5575 36.5935C50.5374 36.2379 50.6582 35.8886 50.8937 35.6213C51.134 35.3551 51.4697 35.1945 51.8278 35.1744C52.186 35.1543 52.5377 35.2763 52.8063 35.514C53.0714 35.7563 53.2299 36.0936 53.2473 36.4523C53.2647 36.811 53.1395 37.162 52.8991 37.4288C52.7735 37.5684 52.62 37.68 52.4485 37.7565C52.277 37.8329 52.0914 37.8725 51.9037 37.8727C51.569 37.8695 51.2475 37.7424 51.0011 37.5159V37.5217ZM166.356 34.8148H166.37C166.246 34.69 166.147 34.5419 166.079 34.3789C166.011 34.2158 165.977 34.0411 165.977 33.8646C165.977 33.6881 166.011 33.5134 166.079 33.3503C166.147 33.1873 166.246 33.0392 166.37 32.9144C166.496 32.7888 166.646 32.6894 166.811 32.6221C166.975 32.5547 167.152 32.5207 167.33 32.5221C167.508 32.5234 167.684 32.5601 167.847 32.6299C168.011 32.6998 168.159 32.8014 168.283 32.929C168.408 33.0533 168.507 33.2011 168.575 33.3639C168.643 33.5267 168.678 33.7013 168.678 33.8776C168.678 34.054 168.643 34.2286 168.575 34.3914C168.507 34.5542 168.408 34.7021 168.283 34.8264C168.03 35.0723 167.693 35.2125 167.34 35.2181C167.156 35.2188 166.975 35.1829 166.805 35.1127C166.636 35.0425 166.482 34.9392 166.353 34.809L166.356 34.8148ZM62.7662 26.4736C62.5553 26.1848 62.4674 25.8242 62.5218 25.4708C62.5761 25.1173 62.7684 24.7999 63.0564 24.5878C63.3455 24.3777 63.7061 24.2902 64.0594 24.3446C64.4127 24.3989 64.7302 24.5906 64.9428 24.8779C65.0473 25.0199 65.1227 25.181 65.1647 25.3522C65.2066 25.5234 65.2143 25.7012 65.1873 25.8753C65.1604 26.0495 65.0993 26.2166 65.0075 26.3671C64.9157 26.5176 64.7951 26.6484 64.6525 26.7521C64.425 26.9281 64.145 27.0231 63.8573 27.022C63.6445 27.0228 63.4346 26.973 63.2449 26.8766C63.0551 26.7803 62.891 26.6401 62.7662 26.4678V26.4736ZM154.132 24.698C153.985 24.6005 153.859 24.4745 153.761 24.3277C153.663 24.1808 153.595 24.016 153.561 23.8426C153.527 23.6693 153.528 23.491 153.564 23.3181C153.6 23.1451 153.67 22.9811 153.77 22.8354C153.969 22.5388 154.278 22.333 154.628 22.2629C154.979 22.1928 155.343 22.2641 155.641 22.4611H155.615C155.764 22.5587 155.891 22.6846 155.991 22.8316C156.09 22.9786 156.159 23.1438 156.195 23.3177C156.23 23.4917 156.231 23.6709 156.196 23.845C156.162 24.0192 156.094 24.1848 155.996 24.3325C155.872 24.5146 155.704 24.663 155.509 24.7643C155.313 24.8656 155.096 24.9166 154.875 24.9127C154.611 24.9152 154.352 24.8384 154.132 24.6922V24.698ZM76.522 18.0425C76.3745 17.7167 76.3612 17.3459 76.485 17.0103C76.6089 16.6748 76.8599 16.4015 77.1838 16.2495C77.5088 16.1012 77.8792 16.0871 78.2145 16.2104C78.5499 16.3338 78.823 16.5845 78.9743 16.9081C79.1237 17.2333 79.1382 17.6045 79.0147 17.9404C78.8913 18.2763 78.64 18.5498 78.3156 18.7011C78.1328 18.7821 77.935 18.8237 77.7351 18.823C77.4796 18.8187 77.2303 18.7427 77.0159 18.6037C76.8014 18.4647 76.6302 18.2682 76.522 18.0367V18.0425ZM140.118 17.2736C139.79 17.1397 139.528 16.8816 139.39 16.5556C139.251 16.2295 139.247 15.862 139.378 15.5329C139.512 15.2044 139.77 14.9422 140.096 14.8036C140.422 14.6649 140.79 14.6612 141.119 14.7931C141.283 14.8585 141.431 14.9555 141.557 15.0784C141.683 15.2014 141.783 15.3478 141.852 15.5095C141.921 15.6712 141.957 15.8449 141.959 16.0206C141.961 16.1964 141.928 16.3708 141.862 16.5338C141.762 16.7806 141.591 16.9919 141.37 17.1408C141.15 17.2896 140.889 17.3692 140.623 17.3694C140.45 17.3684 140.278 17.3339 140.118 17.2678V17.2736ZM91.7115 12.5707C91.6699 12.398 91.6633 12.2188 91.6919 12.0435C91.7205 11.8682 91.7839 11.7004 91.8783 11.5499C91.9726 11.3994 92.096 11.2692 92.2413 11.167C92.3866 11.0648 92.5508 10.9926 92.7244 10.9547C93.0725 10.8763 93.4375 10.9384 93.7401 11.1274C94.0427 11.3164 94.2586 11.6172 94.3408 11.9643C94.4167 12.3126 94.3532 12.6767 94.1639 12.9788C93.9746 13.2808 93.6746 13.4967 93.328 13.5803C93.2264 13.6044 93.1218 13.6141 93.0174 13.6093C92.7133 13.61 92.4181 13.5068 92.1807 13.3169C91.9432 13.127 91.7776 12.8617 91.7115 12.5649V12.5707ZM124.877 12.8608C124.527 12.7952 124.217 12.594 124.015 12.3011C123.812 12.0082 123.734 11.6473 123.797 11.297C123.862 10.9456 124.063 10.634 124.356 10.4298C124.65 10.2255 125.012 10.1452 125.364 10.2061C125.715 10.2745 126.026 10.4777 126.229 10.7721C126.433 11.0666 126.513 11.4289 126.452 11.7816C126.395 12.0907 126.233 12.3704 125.991 12.5722C125.75 12.774 125.446 12.8853 125.132 12.8869C125.046 12.88 124.961 12.8674 124.877 12.8492V12.8608ZM107.693 10.3135C107.686 10.1361 107.715 9.95905 107.777 9.79277C107.839 9.62649 107.934 9.4743 108.056 9.34515C108.178 9.216 108.325 9.11246 108.487 9.04061C108.649 8.96875 108.825 8.93001 109.002 8.92667C109.359 8.92121 109.704 9.05682 109.961 9.30399C110.219 9.55117 110.369 9.88995 110.378 10.2468C110.383 10.4231 110.353 10.5988 110.29 10.7635C110.226 10.9283 110.131 11.0789 110.01 11.2068C109.888 11.3346 109.742 11.4371 109.581 11.5083C109.419 11.5796 109.245 11.6182 109.069 11.622H109.043C108.689 11.6251 108.348 11.4879 108.095 11.2405C107.842 10.9931 107.698 10.6556 107.693 10.3019V10.3135Z" fill="url(#paint6_linear_650_61)"/>
<path d="M184.523 89.5067C184.523 130.177 151.547 163.147 110.865 163.147C70.1838 163.147 37.2104 130.177 37.2104 89.5067C37.2104 48.8366 70.1896 15.8665 110.871 15.8665C151.552 15.8665 184.523 48.8366 184.523 89.5067Z" fill="url(#paint7_linear_650_61)"/>
<path d="M181.85 89.5067C181.85 128.703 150.072 160.472 110.865 160.472C71.658 160.472 39.8804 128.703 39.8804 89.5067C39.8804 50.3105 71.6638 18.5415 110.865 18.5415C150.066 18.5415 181.85 50.3163 181.85 89.5067Z" fill="black"/>
<path style="mix-blend-mode:screen" d="M79.871 153.361L110.871 89.5067L78.1616 152.485C78.7246 152.781 79.2906 153.079 79.871 153.361ZM72.6825 149.316L110.871 89.5067L71.0689 148.272C71.5942 148.632 72.1398 148.968 72.6767 149.316H72.6825ZM110.871 160.472C111.196 160.472 111.509 160.454 111.832 160.449L110.871 89.5067L109.913 160.449C110.227 160.454 110.543 160.472 110.865 160.472H110.871ZM87.5034 156.517L110.871 89.4979L85.7012 155.856C86.2903 156.094 86.8939 156.309 87.4976 156.517H87.5034ZM65.9933 144.486L110.871 89.5067L64.5276 143.244C65.0152 143.659 65.4912 144.083 65.9875 144.486H65.9933ZM95.4464 158.775L110.871 89.5067L93.5805 158.342C94.1928 158.499 94.8196 158.65 95.4406 158.775H95.4464ZM103.572 160.1L110.865 89.5067L101.666 159.86C102.298 159.941 102.931 160.037 103.572 160.1ZM41.1398 102.783L110.865 89.5067L40.8003 100.897C40.9019 101.527 41.0208 102.156 41.1398 102.783ZM43.1248 110.77L110.865 89.5067L42.5937 108.925C42.7678 109.54 42.9333 110.161 43.1248 110.779V110.77ZM49.8721 125.81L110.865 89.5067L48.9145 124.148C49.2279 124.705 49.5442 125.262 49.8721 125.81ZM54.5155 132.637L110.874 89.5067L53.3634 131.088C53.7523 131.616 54.1208 132.129 54.5068 132.637H54.5155ZM46.0762 118.479L110.874 89.5067L45.3072 116.724C45.5422 117.315 45.8093 117.896 46.0675 118.479H46.0762ZM128.167 158.342L110.874 89.5067L126.304 158.775C126.914 158.632 127.538 158.499 128.159 158.342H128.167ZM179.148 108.925L110.874 89.5067L178.606 110.779C178.8 110.161 178.965 109.54 179.14 108.925H179.148ZM176.444 116.724L110.874 89.5067L175.672 118.479C175.93 117.896 176.185 117.315 176.435 116.724H176.444ZM172.825 124.148L110.874 89.5067L171.867 125.81C172.186 125.262 172.502 124.705 172.816 124.148H172.825ZM181.661 94.5839C181.708 93.9485 181.754 93.3131 181.78 92.6719L110.874 89.5067L181.661 94.5839ZM168.364 131.088L110.865 89.5067L167.224 132.64C167.611 132.129 167.991 131.612 168.364 131.088ZM180.93 100.885L110.865 89.495L180.593 102.771C180.71 102.156 180.829 101.527 180.93 100.897V100.885ZM163.161 137.488L110.865 89.5067L161.837 138.872C162.29 138.413 162.728 137.958 163.161 137.488ZM136.038 155.865L110.868 89.5067L134.236 156.526C134.836 156.309 135.437 156.094 136.035 155.865H136.038ZM120.076 159.86L110.877 89.5067L118.161 160.1C118.802 160.037 119.432 159.941 120.065 159.86H120.076ZM40.0922 94.581L110.877 89.5037L39.9732 92.669C39.9906 93.3131 40.0341 93.9514 40.0806 94.5839L40.0922 94.581ZM143.586 152.482L110.865 89.5067L141.865 153.361C142.443 153.079 143.009 152.781 143.574 152.485L143.586 152.482ZM150.679 148.269L110.865 89.5067L149.054 149.316C149.593 148.968 150.136 148.632 150.682 148.272L150.679 148.269ZM157.214 143.241L110.865 89.5067L155.743 144.486C156.236 144.083 156.718 143.659 157.203 143.244L157.214 143.241ZM59.9047 138.869L110.877 89.5037L58.5842 137.485C59.005 137.958 59.4491 138.413 59.8931 138.872L59.9047 138.869ZM161.849 40.1385L110.865 89.5067L163.161 41.5254C162.728 41.0553 162.29 40.5998 161.837 40.1414L161.849 40.1385ZM141.877 25.6495L110.865 89.5067L143.574 26.5286C143.009 26.2327 142.443 25.9339 141.865 25.6524L141.877 25.6495ZM155.752 34.5246L110.877 89.5037L157.214 35.7663C156.715 35.3456 156.236 34.9337 155.74 34.5275L155.752 34.5246ZM149.062 29.6968L110.865 89.5067L150.664 30.7384C150.133 30.3786 149.591 30.0421 149.051 29.6997L149.062 29.6968ZM126.298 20.2387L110.877 89.5037L128.17 20.671C127.538 20.5172 126.914 20.3779 126.287 20.2416L126.298 20.2387ZM134.244 22.49L110.877 89.5095L136.035 23.1603C135.437 22.9262 134.836 22.7038 134.233 22.493L134.244 22.49ZM180.605 76.2275L110.877 89.5037L180.942 78.1133C180.829 77.4838 180.71 76.8571 180.593 76.2304L180.605 76.2275ZM118.173 18.9099L110.877 89.5037L120.076 19.1536C119.432 19.0694 118.802 18.9766 118.161 18.9128L118.173 18.9099ZM181.664 84.4236L110.877 89.5037L181.783 86.3355C181.734 85.6973 181.696 85.0619 181.653 84.4265L181.664 84.4236ZM167.224 46.3705L110.865 89.5067L168.364 47.9111C167.99 47.3946 167.61 46.8811 167.224 46.3705ZM178.611 68.2403L110.871 89.5037L179.142 70.0826C178.962 69.4704 178.794 68.8525 178.606 68.2432L178.611 68.2403ZM171.867 53.2001L110.865 89.5067L172.813 54.8654C172.502 54.3055 172.186 53.7513 171.867 53.2001ZM175.669 60.5316L110.874 89.5067L176.441 62.2869C176.185 61.6979 175.93 61.1148 175.66 60.5316H175.669ZM48.9261 54.8654L110.874 89.5067L49.8837 53.2001C49.5442 53.7513 49.2308 54.3055 48.9173 54.8654H48.9261ZM58.5813 41.5195L110.874 89.5008L59.9017 40.1356C59.4519 40.5998 59.005 41.0553 58.5726 41.5254L58.5813 41.5195ZM45.3072 62.2811L110.874 89.5008L46.0792 60.5258C45.8093 61.1148 45.5481 61.6979 45.2985 62.2869L45.3072 62.2811ZM53.375 47.9053L110.874 89.5008L54.5096 46.3705C54.1237 46.8811 53.7522 47.3946 53.3662 47.9111L53.375 47.9053ZM39.9702 86.3326L110.874 89.5008L40.0892 84.4207C40.037 85.0619 39.9906 85.6973 39.9615 86.3384L39.9702 86.3326ZM40.8089 78.1104L110.874 89.5008L41.1485 76.2246C41.0208 76.8571 40.9019 77.4838 40.8003 78.1162L40.8089 78.1104ZM42.6025 70.0797L110.874 89.5008L43.1364 68.2374C42.9362 68.8525 42.7678 69.4704 42.5937 70.0855L42.6025 70.0797ZM64.5364 35.7634L110.874 89.5008L65.9991 34.5217C65.4941 34.9336 65.0152 35.3456 64.5276 35.7692L64.5364 35.7634ZM85.7042 23.1428L110.874 89.5008L87.5064 22.4814C86.894 22.7048 86.2903 22.9224 85.6954 23.1603L85.7042 23.1428ZM93.5833 20.6681L110.874 89.5008L95.4494 20.2358C94.8196 20.378 94.1928 20.5172 93.5747 20.6739L93.5833 20.6681ZM110.874 18.5356C110.552 18.5356 110.235 18.5559 109.916 18.5588L110.874 89.5008L111.835 18.5588C111.504 18.5617 111.19 18.5414 110.865 18.5414L110.874 18.5356ZM101.674 19.1507L110.874 89.5008L103.581 18.907C102.931 18.9766 102.298 19.0694 101.666 19.1565L101.674 19.1507ZM71.0747 30.7326L110.874 89.5008L72.6883 29.6939C72.1398 30.0421 71.5972 30.3786 71.0661 30.7384L71.0747 30.7326ZM78.1646 26.5228L110.874 89.5008L79.871 25.6524C79.2906 25.9339 78.7246 26.2327 78.1558 26.5286L78.1646 26.5228Z" fill="url(#paint8_radial_650_61)"/>
<path style="mix-blend-mode:screen" d="M63.0187 141.924C85.0704 99.0464 118.606 63.1381 159.884 38.2064C146.698 25.5682 129.132 18.5213 110.865 18.5415C71.6639 18.5415 39.8804 50.3163 39.8804 89.5068C39.8691 99.3737 41.9216 109.134 45.9063 118.161C49.8911 127.188 55.72 135.282 63.0187 141.924Z" fill="url(#paint9_radial_650_61)"/>
<path d="M57.2842 86.6314L54.3792 84.911L51.4713 86.6343L52.2113 83.3356L49.672 81.1074L53.0384 80.7912L54.3734 77.6897L55.7141 80.7912L59.0805 81.1016L56.5441 83.3356L57.2842 86.6314Z" fill="url(#paint10_linear_650_61)"/>
<path d="M171.646 86.6314L168.739 84.911L165.831 86.6343L166.571 83.3356L164.034 81.1074L167.398 80.7912L168.733 77.6897L170.076 80.7912L173.44 81.1016L170.904 83.3356L171.646 86.6314Z" fill="url(#paint11_linear_650_61)"/>
<path style="mix-blend-mode:screen" d="M99.9969 120.483C99.9963 128.667 97.5684 136.667 93.0201 143.471C88.4719 150.275 82.0074 155.578 74.4444 158.71C66.8814 161.841 58.5595 162.66 50.5309 161.063C42.5023 159.466 35.1277 155.525 29.3396 149.738C23.5515 143.951 19.6098 136.578 18.013 128.552C16.4162 120.525 17.236 112.206 20.3688 104.645C23.5016 97.0845 28.8065 90.6223 35.6129 86.0758C42.4193 81.5293 50.4215 79.1025 58.6074 79.1025C64.043 79.1025 69.4253 80.1729 74.4471 82.2525C79.4689 84.3322 84.0318 87.3803 87.8752 91.2229C91.7186 95.0655 94.7673 99.6274 96.8471 104.648C98.927 109.668 99.9973 115.049 99.9969 120.483Z" fill="url(#paint12_radial_650_61)"/>
<path style="mix-blend-mode:screen" d="M133.147 17.2505C133.147 24.8228 123.095 30.9619 110.694 30.9619C98.2934 30.9619 88.2406 24.8228 88.2406 17.2505C88.2406 9.67814 98.2905 3.53613 110.694 3.53613C123.098 3.53613 133.147 9.67524 133.147 17.2505Z" fill="url(#paint13_radial_650_61)"/>
<path d="M74.968 50.4H82.936C85.656 50.4 87.64 51.04 88.888 52.32C90.136 53.568 90.76 55.504 90.76 58.128V59.472C90.76 61.2 90.472 62.608 89.896 63.696C89.352 64.784 88.504 65.568 87.352 66.048V66.144C89.976 67.04 91.288 69.376 91.288 73.152V76.032C91.288 78.624 90.6 80.608 89.224 81.984C87.88 83.328 85.896 84 83.272 84H74.968V50.4ZM82.312 64.08C83.368 64.08 84.152 63.808 84.664 63.264C85.208 62.72 85.48 61.808 85.48 60.528V58.656C85.48 57.44 85.256 56.56 84.808 56.016C84.392 55.472 83.72 55.2 82.792 55.2H80.248V64.08H82.312ZM83.272 79.2C84.2 79.2 84.888 78.96 85.336 78.48C85.784 77.968 86.008 77.104 86.008 75.888V72.96C86.008 71.424 85.736 70.368 85.192 69.792C84.68 69.184 83.816 68.88 82.6 68.88H80.248V79.2H83.272ZM94.3743 50.4H108.774V55.2H99.6543V64.08H106.902V68.88H99.6543V79.2H108.774V84H94.3743V50.4ZM118.77 84.48C116.21 84.48 114.274 83.76 112.962 82.32C111.65 80.848 110.994 78.752 110.994 76.032V74.112H115.986V76.416C115.986 78.592 116.898 79.68 118.722 79.68C119.618 79.68 120.29 79.424 120.738 78.912C121.218 78.368 121.458 77.504 121.458 76.32C121.458 74.912 121.138 73.68 120.498 72.624C119.858 71.536 118.674 70.24 116.946 68.736C114.77 66.816 113.25 65.088 112.386 63.552C111.522 61.984 111.09 60.224 111.09 58.272C111.09 55.616 111.762 53.568 113.105 52.128C114.45 50.656 116.402 49.92 118.962 49.92C121.49 49.92 123.394 50.656 124.674 52.128C125.986 53.568 126.642 55.648 126.642 58.368V59.76H121.65V58.032C121.65 56.88 121.426 56.048 120.978 55.536C120.53 54.992 119.874 54.72 119.01 54.72C117.25 54.72 116.37 55.792 116.37 57.936C116.37 59.152 116.69 60.288 117.33 61.344C118.002 62.4 119.202 63.68 120.93 65.184C123.138 67.104 124.658 68.848 125.49 70.416C126.322 71.984 126.738 73.824 126.738 75.936C126.738 78.688 126.05 80.8 124.674 82.272C123.33 83.744 121.362 84.48 118.77 84.48ZM133.893 55.2H128.373V50.4H144.693V55.2H139.173V84H133.893V55.2Z" fill="url(#paint14_linear_650_61)"/>
<path d="M196.612 147.135C139.763 119.796 84.1594 119.802 27.3076 147.135C22.3741 138.141 19.9219 133.65 15 124.661C79.3391 93.1129 144.584 93.1129 208.923 124.661L196.612 147.135Z" fill="url(#paint15_linear_650_61)"/>
<path d="M47.3875 134.794C46.2218 135.322 45.1843 135.398 44.2749 135.02C43.3588 134.627 42.6199 133.812 42.058 132.573L36.7633 120.902L39.1675 119.811L44.5415 131.657C44.7795 132.182 45.0533 132.514 45.3631 132.655C45.6874 132.789 46.0463 132.767 46.4397 132.588C46.8331 132.41 47.0789 132.158 47.1772 131.832C47.2899 131.5 47.2274 131.071 46.9894 130.547L41.6154 118.701L43.9321 117.65L49.2268 129.321C49.7887 130.559 49.9157 131.653 49.6078 132.6C49.2932 133.534 48.5532 134.265 47.3875 134.794Z" fill="black"/>
<path d="M55.7526 131.405C54.547 131.835 53.5144 131.821 52.6545 131.363C51.7893 130.891 51.1282 130.014 50.6711 128.733L50.3484 127.829L52.6992 126.99L53.0864 128.075C53.4521 129.1 54.0644 129.459 54.9233 129.152C55.3453 129.002 55.6187 128.768 55.7436 128.452C55.8782 128.115 55.8461 127.668 55.6471 127.11C55.4105 126.447 55.0527 125.921 54.5739 125.531C54.0897 125.126 53.3143 124.715 52.2478 124.297C50.9005 123.759 49.8943 123.2 49.2293 122.622C48.5589 122.029 48.0597 121.273 47.7317 120.353C47.2853 119.103 47.2576 118.025 47.6485 117.121C48.0341 116.202 48.8296 115.528 50.0351 115.097C51.2256 114.673 52.2459 114.699 53.0961 115.177C53.9559 115.635 54.6143 116.504 55.0714 117.785L55.3054 118.441L52.9546 119.28L52.6642 118.466C52.4706 117.923 52.2253 117.569 51.9283 117.403C51.6259 117.222 51.2713 117.205 50.8644 117.35C50.0356 117.646 49.8013 118.298 50.1616 119.308C50.366 119.881 50.7076 120.362 51.1864 120.751C51.6803 121.136 52.4605 121.537 53.527 121.955C54.8895 122.488 55.8983 123.054 56.5536 123.652C57.2089 124.251 57.7141 125.047 58.069 126.042C58.5315 127.338 58.5624 128.448 58.1618 129.373C57.7763 130.292 56.9732 130.969 55.7526 131.405Z" fill="black"/>
<path d="M56.0479 113.299L62.9697 111.317L63.6304 113.624L59.2467 114.879L60.4691 119.148L63.953 118.15L64.6138 120.457L61.1299 121.455L62.5505 126.416L66.9343 125.16L67.5951 127.467L60.6733 129.45L56.0479 113.299Z" fill="black"/>
<path d="M64.9561 110.794L68.7734 109.938C70.1004 109.641 71.1384 109.736 71.8873 110.224C72.6327 110.697 73.1488 111.573 73.4358 112.853L73.6615 113.86C74.043 115.562 73.7224 116.765 72.6998 117.47L72.7103 117.517C73.3768 117.564 73.8997 117.849 74.2789 118.37C74.6738 118.888 74.9798 119.631 75.1967 120.599L75.8424 123.48C75.9474 123.948 76.0488 124.327 76.1465 124.617C76.2407 124.891 76.3817 125.155 76.5696 125.408L73.9467 125.996C73.7935 125.751 73.6751 125.515 73.5914 125.288C73.5077 125.061 73.3976 124.643 73.2611 124.034L72.5892 121.036C72.4212 120.287 72.1791 119.792 71.8628 119.551C71.5621 119.307 71.1151 119.252 70.5218 119.385L69.6319 119.584L71.2067 126.61L68.6306 127.187L64.9561 110.794ZM70.0437 117.032C70.5589 116.917 70.9117 116.698 71.102 116.377C71.3079 116.052 71.3409 115.577 71.2009 114.953L70.9175 113.688C70.7845 113.095 70.5789 112.69 70.3009 112.474C70.0384 112.254 69.6808 112.194 69.228 112.296L68.0571 112.558L69.107 117.242L70.0437 117.032Z" fill="black"/>
<path d="M81.2815 107.531L88.4194 106.587L88.734 108.966L84.2134 109.564L84.7954 113.966L88.3882 113.491L88.7028 115.87L85.1101 116.345L85.7865 121.461L90.3072 120.863L90.6218 123.242L83.484 124.186L81.2815 107.531Z" fill="black"/>
<path d="M93.6283 114.322L90.088 106.367L92.8634 106.149L95.0603 111.416L95.1082 111.412L96.5001 105.862L98.9884 105.665L96.7387 114.076L100.453 122.402L97.6773 122.621L95.3029 116.934L95.255 116.938L93.7535 122.93L91.2652 123.127L93.6283 114.322Z" fill="black"/>
<path d="M101.883 105.518L105.77 105.433C107.081 105.405 108.073 105.736 108.744 106.425C109.415 107.115 109.765 108.139 109.795 109.499L109.831 111.155C109.86 112.514 109.554 113.553 108.914 114.271C108.273 114.989 107.297 115.363 105.985 115.391L104.738 115.418L104.886 122.257L102.247 122.314L101.883 105.518ZM105.933 112.992C106.365 112.982 106.683 112.855 106.885 112.611C107.104 112.366 107.207 111.956 107.195 111.38L107.152 109.388C107.139 108.813 107.018 108.407 106.789 108.172C106.576 107.937 106.254 107.823 105.822 107.833L104.574 107.86L104.686 113.019L105.933 112.992Z" fill="black"/>
<path d="M112.374 105.365L119.571 105.584L119.498 107.983L114.94 107.844L114.805 112.282L118.427 112.392L118.354 114.791L114.731 114.681L114.574 119.838L119.132 119.977L119.059 122.376L111.862 122.157L112.374 105.365Z" fill="black"/>
<path d="M121.643 105.686L125.542 106.007C126.898 106.119 127.86 106.519 128.429 107.208C129 107.881 129.232 108.871 129.124 110.179L129.039 111.207C128.896 112.946 128.232 113.999 127.045 114.367L127.042 114.414C127.664 114.658 128.078 115.086 128.285 115.697C128.507 116.309 128.578 117.109 128.496 118.098L128.254 121.04C128.215 121.519 128.199 121.911 128.205 122.216C128.214 122.506 128.27 122.799 128.374 123.097L125.695 122.876C125.621 122.597 125.579 122.337 125.566 122.095C125.554 121.853 125.574 121.422 125.625 120.8L125.877 117.738C125.94 116.973 125.856 116.428 125.626 116.104C125.412 115.781 125.002 115.595 124.396 115.545L123.487 115.47L122.896 122.646L120.265 122.43L121.643 105.686ZM124.641 113.157C125.167 113.201 125.569 113.097 125.846 112.847C126.14 112.598 126.312 112.155 126.365 111.517L126.471 110.225C126.521 109.62 126.446 109.172 126.245 108.882C126.06 108.594 125.736 108.431 125.274 108.393L124.078 108.295L123.684 113.078L124.641 113.157Z" fill="black"/>
<path d="M131.717 106.598L134.337 106.921L132.281 123.595L129.661 123.272L131.717 106.598Z" fill="black"/>
<path d="M137.185 107.271L144.291 108.43L143.904 110.799L139.404 110.065L138.689 114.447L142.266 115.03L141.879 117.399L138.302 116.815L137.472 121.908L141.972 122.642L141.586 125.011L134.48 123.852L137.185 107.271Z" fill="black"/>
<path d="M146.914 108.901L150.148 109.617L150.481 119.991L150.528 120.001L152.702 110.183L154.998 110.691L151.366 127.094L148.718 126.508L148.277 113.849L148.23 113.838L145.578 125.812L143.282 125.304L146.914 108.901Z" fill="black"/>
<path d="M157.089 128.88C155.873 128.536 155.039 127.926 154.589 127.051C154.153 126.179 154.114 125.112 154.472 123.85L156.928 115.167C157.286 113.904 157.878 113.016 158.705 112.502C159.548 111.992 160.577 111.909 161.793 112.253C163.01 112.597 163.835 113.205 164.271 114.076C164.721 114.952 164.768 116.021 164.411 117.284L163.927 118.993L161.525 118.313L162.055 116.442C162.338 115.442 162.056 114.822 161.209 114.582C160.362 114.342 159.798 114.723 159.514 115.724L156.96 124.753C156.681 125.739 156.965 126.351 157.811 126.591C158.658 126.83 159.221 126.457 159.5 125.472L160.199 123.001L162.601 123.681L161.954 125.967C161.597 127.229 160.997 128.115 160.154 128.625C159.327 129.139 158.305 129.224 157.089 128.88Z" fill="black"/>
<path d="M167.76 114.243L174.579 116.552L173.81 118.825L169.491 117.363L168.067 121.568L171.499 122.731L170.729 125.004L167.297 123.842L165.642 128.729L169.961 130.191L169.191 132.465L162.372 130.155L167.76 114.243Z" fill="black"/>
<defs>
<linearGradient id="paint0_linear_650_61" x1="7.9777" y1="163.173" x2="59.1429" y2="133.231" gradientUnits="userSpaceOnUse">
<stop stop-color="#EEBE47"/>
<stop offset="0.12" stop-color="#F8DB77"/>
<stop offset="0.21" stop-color="#FFEE96"/>
<stop offset="0.45" stop-color="#A2621E"/>
<stop offset="0.67" stop-color="#EEA54C"/>
<stop offset="1" stop-color="#EEBE47"/>
</linearGradient>
<linearGradient id="paint1_linear_650_61" x1="210.914" y1="160.092" x2="165.585" y2="133.737" gradientUnits="userSpaceOnUse">
<stop stop-color="#EEBE47"/>
<stop offset="0.12" stop-color="#F8DB77"/>
<stop offset="0.21" stop-color="#FFEE96"/>
<stop offset="0.45" stop-color="#A2621E"/>
<stop offset="0.67" stop-color="#EEA54C"/>
<stop offset="1" stop-color="#EEBE47"/>
</linearGradient>
<linearGradient id="paint2_linear_650_61" x1="15.0386" y1="137.642" x2="57.6004" y2="137.642" gradientUnits="userSpaceOnUse">
<stop stop-color="#79380C"/>
<stop offset="0.05" stop-color="#794016"/>
<stop offset="0.21" stop-color="#795A35"/>
<stop offset="0.45" stop-color="#531200"/>
<stop offset="0.67" stop-color="#782A0F"/>
<stop offset="1" stop-color="#79380C"/>
</linearGradient>
<linearGradient id="paint3_linear_650_61" x1="166.396" y1="137.642" x2="208.961" y2="137.642" gradientUnits="userSpaceOnUse">
<stop stop-color="#79380C"/>
<stop offset="0.05" stop-color="#794016"/>
<stop offset="0.21" stop-color="#795A35"/>
<stop offset="0.45" stop-color="#531200"/>
<stop offset="0.67" stop-color="#782A0F"/>
<stop offset="1" stop-color="#79380C"/>
</linearGradient>
<linearGradient id="paint4_linear_650_61" x1="48.3138" y1="26.9726" x2="174.926" y2="153.619" gradientUnits="userSpaceOnUse">
<stop stop-color="#EEBE47"/>
<stop offset="0.12" stop-color="#F8DB77"/>
<stop offset="0.21" stop-color="#FFEE96"/>
<stop offset="0.45" stop-color="#A2621E"/>
<stop offset="0.67" stop-color="#EEA54C"/>
<stop offset="1" stop-color="#EEBE47"/>
</linearGradient>
<radialGradient id="paint5_radial_650_61" cx="0" cy="0" r="1" gradientUnits="userSpaceOnUse" gradientTransform="translate(160.517 -53.6103) scale(198.418 198.363)">
<stop stop-color="#FFF1D1"/>
<stop offset="0.05" stop-color="#FFC94C"/>
<stop offset="0.14" stop-color="#A2621E"/>
<stop offset="0.16" stop-color="#965B1C"/>
<stop offset="0.25" stop-color="#6E4314"/>
<stop offset="0.34" stop-color="#4C2E0E"/>
<stop offset="0.44" stop-color="#301D09"/>
<stop offset="0.55" stop-color="#1B1005"/>
<stop offset="0.66" stop-color="#0C0702"/>
<stop offset="0.8" stop-color="#030201"/>
<stop offset="1"/>
</radialGradient>
<linearGradient id="paint6_linear_650_61" x1="54.0339" y1="32.4734" x2="167.932" y2="146.403" gradientUnits="userSpaceOnUse">
<stop stop-color="#EEBE47"/>
<stop offset="0.12" stop-color="#F8DB77"/>
<stop offset="0.21" stop-color="#FFEE96"/>
<stop offset="0.45" stop-color="#A2621E"/>
<stop offset="0.67" stop-color="#EEA54C"/>
<stop offset="1" stop-color="#EEBE47"/>
</linearGradient>
<linearGradient id="paint7_linear_650_61" x1="48.1745" y1="26.8333" x2="182.37" y2="161.066" gradientUnits="userSpaceOnUse">
<stop stop-color="#EEBE47"/>
<stop offset="0.12" stop-color="#F8DB77"/>
<stop offset="0.21" stop-color="#FFEE96"/>
<stop offset="0.45" stop-color="#A2621E"/>
<stop offset="0.67" stop-color="#EEA54C"/>
<stop offset="1" stop-color="#EEBE47"/>
</linearGradient>
<radialGradient id="paint8_radial_650_61" cx="0" cy="0" r="1" gradientUnits="userSpaceOnUse" gradientTransform="translate(76.7918 -9.77211) scale(127.906 127.871)">
<stop stop-color="#FFF1D1"/>
<stop offset="0.05" stop-color="#FFC94C"/>
<stop offset="0.14" stop-color="#A2621E"/>
<stop offset="0.16" stop-color="#965B1C"/>
<stop offset="0.25" stop-color="#6E4314"/>
<stop offset="0.34" stop-color="#4C2E0E"/>
<stop offset="0.44" stop-color="#301D09"/>
<stop offset="0.55" stop-color="#1B1005"/>
<stop offset="0.66" stop-color="#0C0702"/>
<stop offset="0.8" stop-color="#030201"/>
<stop offset="1"/>
</radialGradient>
<radialGradient id="paint9_radial_650_61" cx="0" cy="0" r="1" gradientUnits="userSpaceOnUse" gradientTransform="translate(147.237 -25.0182) scale(182.61 182.56)">
<stop stop-color="#FFF1D1"/>
<stop offset="0.05" stop-color="#FFC94C"/>
<stop offset="0.14" stop-color="#A2621E"/>
<stop offset="0.16" stop-color="#965B1C"/>
<stop offset="0.25" stop-color="#6E4314"/>
<stop offset="0.34" stop-color="#4C2E0E"/>
<stop offset="0.44" stop-color="#301D09"/>
<stop offset="0.55" stop-color="#1B1005"/>
<stop offset="0.66" stop-color="#0C0702"/>
<stop offset="0.8" stop-color="#030201"/>
<stop offset="1"/>
</radialGradient>
<linearGradient id="paint10_linear_650_61" x1="38.1856" y1="69.8998" x2="170.874" y2="178.432" gradientUnits="userSpaceOnUse">
<stop stop-color="#EEBE47"/>
<stop offset="0.12" stop-color="#F8DB77"/>
<stop offset="0.21" stop-color="#FFEE96"/>
<stop offset="0.45" stop-color="#A2621E"/>
<stop offset="0.67" stop-color="#EEA54C"/>
<stop offset="1" stop-color="#EEBE47"/>
</linearGradient>
<linearGradient id="paint11_linear_650_61" x1="94.7761" y1="22.6699" x2="227.491" y2="131.225" gradientUnits="userSpaceOnUse">
<stop stop-color="#EEBE47"/>
<stop offset="0.12" stop-color="#F8DB77"/>
<stop offset="0.21" stop-color="#FFEE96"/>
<stop offset="0.45" stop-color="#A2621E"/>
<stop offset="0.67" stop-color="#EEA54C"/>
<stop offset="1" stop-color="#EEBE47"/>
</linearGradient>
<radialGradient id="paint12_radial_650_61" cx="0" cy="0" r="1" gradientUnits="userSpaceOnUse" gradientTransform="translate(58.6074 120.481) scale(41.3895 41.378)">
<stop stop-color="#FFC94C"/>
<stop offset="0.14" stop-color="#A2621E"/>
<stop offset="0.16" stop-color="#965B1C"/>
<stop offset="0.25" stop-color="#6E4314"/>
<stop offset="0.34" stop-color="#4C2E0E"/>
<stop offset="0.44" stop-color="#301D09"/>
<stop offset="0.55" stop-color="#1B1005"/>
<stop offset="0.66" stop-color="#0C0702"/>
<stop offset="0.8" stop-color="#030201"/>
<stop offset="1"/>
</radialGradient>
<radialGradient id="paint13_radial_650_61" cx="0" cy="0" r="1" gradientUnits="userSpaceOnUse" gradientTransform="translate(110.694 16.7011) scale(22.4534 13.6928)">
<stop stop-color="#FFC94C"/>
<stop offset="0.14" stop-color="#A2621E"/>
<stop offset="0.16" stop-color="#965B1C"/>
<stop offset="0.25" stop-color="#6E4314"/>
<stop offset="0.34" stop-color="#4C2E0E"/>
<stop offset="0.44" stop-color="#301D09"/>
<stop offset="0.55" stop-color="#1B1005"/>
<stop offset="0.66" stop-color="#0C0702"/>
<stop offset="0.8" stop-color="#030201"/>
<stop offset="1"/>
</radialGradient>
<linearGradient id="paint14_linear_650_61" x1="80.6652" y1="42.91" x2="150.05" y2="98.5611" gradientUnits="userSpaceOnUse">
<stop stop-color="#EEBE47"/>
<stop offset="0.12" stop-color="#F8DB77"/>
<stop offset="0.21" stop-color="#FFEE96"/>
<stop offset="0.45" stop-color="#A2621E"/>
<stop offset="0.67" stop-color="#EEA54C"/>
<stop offset="1" stop-color="#EEBE47"/>
</linearGradient>
<linearGradient id="paint15_linear_650_61" x1="15" y1="124.067" x2="208.923" y2="124.067" gradientUnits="userSpaceOnUse">
<stop stop-color="#EEBE47"/>
<stop offset="0.12" stop-color="#F8DB77"/>
<stop offset="0.21" stop-color="#FFEE96"/>
<stop offset="0.45" stop-color="#A2621E"/>
<stop offset="0.67" stop-color="#EEA54C"/>
<stop offset="1" stop-color="#EEBE47"/>
</linearGradient>
</defs>
</svg>
